<svg xmlns="http://www.w3.org/2000/svg" xmlns:xlink="http://www.w3.org/1999/xlink" width="1000" height="510" viewBox="0 0 1000 510"><rect width="100%" height="100%" fill="#f7f8f3"/><g font-family="DejaVu Sans" fill="#20382e"><text x="24.000" y="29.000" font-size="18">Seed 28 · 167.2 m² · plan and metric envelope section</text><polygon points="52.481,125.240 175.012,125.240 175.012,153.221 257.409,153.221 257.409,125.240 447.519,125.240 447.519,394.760 52.481,394.760" fill="#eff3e9" stroke="#20382e" stroke-width="1.5"/><polygon points="200.181,313.248 281.013,339.127 273.788,361.693 192.956,335.814" fill="#dce3d6" stroke="#b7c2b0" stroke-width="1.5"/><polygon points="259.754,324.917 228.374,311.297 235.752,294.297 267.132,307.917" fill="#dce3d6" stroke="#b7c2b0" stroke-width="1.5"/><polygon points="288.289,312.293 274.949,301.796 285.446,288.456 298.786,298.953" fill="#dce3d6" stroke="#b7c2b0" stroke-width="1.5"/><polygon points="223.199,289.082 207.142,283.578 212.645,267.521 228.703,273.024" fill="#dce3d6" stroke="#b7c2b0" stroke-width="1.5"/><polygon points="419.746,331.654 392.623,308.775 404.094,295.177 431.217,318.055" fill="#dce3d6" stroke="#b7c2b0" stroke-width="1.5"/><polygon points="428.264,306.827 413.514,298.427 421.914,283.676 436.665,292.077" fill="#dce3d6" stroke="#b7c2b0" stroke-width="1.5"/><polygon points="362.843,181.368 306.727,179.972 307.341,155.288 363.458,156.684" fill="#dce3d6" stroke="#b7c2b0" stroke-width="1.5"/><polygon points="333.590,337.185 299.236,343.647 295.860,325.699 330.214,319.237" fill="#dce3d6" stroke="#b7c2b0" stroke-width="1.5"/><polygon points="320.627,311.614 306.737,321.372 296.979,307.483 310.868,297.724" fill="#dce3d6" stroke="#b7c2b0" stroke-width="1.5"/><polygon points="387.870,381.186 360.811,375.435 364.058,360.161 391.116,365.912" fill="#dce3d6" stroke="#b7c2b0" stroke-width="1.5"/><polygon points="385.857,361.901 371.088,353.534 379.456,338.765 394.224,347.132" fill="#dce3d6" stroke="#b7c2b0" stroke-width="1.5"/><polygon points="294.790,237.957 268.936,209.279 281.213,198.211 307.067,226.889" fill="#dce3d6" stroke="#b7c2b0" stroke-width="1.5"/><polygon points="301.825,216.279 293.799,201.322 308.756,193.296 316.782,208.253" fill="#dce3d6" stroke="#b7c2b0" stroke-width="1.5"/><polygon points="408.821,212.557 389.342,192.744 401.461,180.830 420.939,200.644" fill="#dce3d6" stroke="#b7c2b0" stroke-width="1.5"/><polygon points="421.101,194.428 409.990,181.595 422.822,170.484 433.934,183.316" fill="#dce3d6" stroke="#b7c2b0" stroke-width="1.5"/><polygon points="72.951,175.778 72.951,201.863 64.464,201.863 64.464,175.778" fill="#dce3d6" stroke="#b7c2b0" stroke-width="1.5"/><polygon points="72.951,209.257 72.951,230.061 64.464,230.061 64.464,209.257" fill="#dce3d6" stroke="#b7c2b0" stroke-width="1.5"/><polygon points="214.008,385.569 199.016,385.569 199.016,371.500 214.008,371.500" fill="#dce3d6" stroke="#b7c2b0" stroke-width="1.5"/><polygon points="72.951,271.356 72.951,299.664 64.464,299.664 64.464,271.356" fill="#dce3d6" stroke="#b7c2b0" stroke-width="1.5"/><polygon points="132.780,226.632 104.822,226.632 104.822,211.155 132.780,211.155" fill="#dce3d6" stroke="#b7c2b0" stroke-width="1.5"/><polygon points="123.823,209.335 109.312,200.527 118.120,186.016 132.630,194.824" fill="#dce3d6" stroke="#b7c2b0" stroke-width="1.5"/><polygon points="96.149,265.179 96.149,237.221 111.626,237.221 111.626,265.179" fill="#dce3d6" stroke="#b7c2b0" stroke-width="1.5"/><polygon points="114.386,254.920 119.708,238.801 135.826,244.123 130.504,260.242" fill="#dce3d6" stroke="#b7c2b0" stroke-width="1.5"/><polygon points="91.034,376.472 70.520,385.634 61.358,365.120 81.872,355.958" fill="#dce3d6" stroke="#b7c2b0" stroke-width="1.5"/><polygon points="427.424,340.217 436.660,340.217 436.660,349.453 427.424,349.453" fill="#dce3d6" stroke="#b7c2b0" stroke-width="1.5"/><circle cx="172.68272829037437" cy="307.6432704271399" r="7.921689891811731" fill="#45594a"/><circle cx="205.6147718486381" cy="245.3333491617675" r="5.8292046556172" fill="#45594a"/><path d="M56.326,125.240 L107.330,125.240" stroke="#2797a5" stroke-width="4" fill="none"/><path d="M111.272,125.240 L171.168,125.240" stroke="#2797a5" stroke-width="4" fill="none"/><path d="M263.474,125.240 L332.252,125.240" stroke="#2797a5" stroke-width="4" fill="none"/><path d="M354.719,125.240 L441.453,125.240" stroke="#2797a5" stroke-width="4" fill="none"/><path d="M447.519,132.317 L447.519,186.521" stroke="#2797a5" stroke-width="4" fill="none"/><path d="M447.519,203.745 L447.519,248.802" stroke="#2797a5" stroke-width="4" fill="none"/><path d="M447.519,266.026 L447.519,331.382" stroke="#2797a5" stroke-width="4" fill="none"/><path d="M447.519,348.607 L447.519,387.683" stroke="#2797a5" stroke-width="4" fill="none"/><path d="M52.481,389.384 L52.481,296.969" stroke="#2797a5" stroke-width="4" fill="none"/><path d="M52.481,279.078 L52.481,217.980" stroke="#2797a5" stroke-width="4" fill="none"/><path d="M52.481,200.089 L52.481,130.616" stroke="#2797a5" stroke-width="4" fill="none"/><polygon points="87.135,159.893 141.054,159.893 141.054,284.707 87.135,284.707" fill="#c8aed8" stroke="#899781" stroke-width="1.5"/><polygon points="141.054,163.638 273.103,163.638 273.103,190.597 141.054,190.597" fill="#e4d7ec" stroke="#899781" stroke-width="1.5"/><path d="M141.054,163.638 L141.054,190.597" stroke="#79608f" stroke-width="0.8" fill="none"/><path d="M148.390,163.638 L148.390,190.597" stroke="#79608f" stroke-width="0.8" fill="none"/><path d="M155.726,163.638 L155.726,190.597" stroke="#79608f" stroke-width="0.8" fill="none"/><path d="M163.062,163.638 L163.062,190.597" stroke="#79608f" stroke-width="0.8" fill="none"/><path d="M170.398,163.638 L170.398,190.597" stroke="#79608f" stroke-width="0.8" fill="none"/><path d="M177.734,163.638 L177.734,190.597" stroke="#79608f" stroke-width="0.8" fill="none"/><path d="M185.070,163.638 L185.070,190.597" stroke="#79608f" stroke-width="0.8" fill="none"/><path d="M192.406,163.638 L192.406,190.597" stroke="#79608f" stroke-width="0.8" fill="none"/><path d="M199.742,163.638 L199.742,190.597" stroke="#79608f" stroke-width="0.8" fill="none"/><path d="M207.078,163.638 L207.078,190.597" stroke="#79608f" stroke-width="0.8" fill="none"/><path d="M214.414,163.638 L214.414,190.597" stroke="#79608f" stroke-width="0.8" fill="none"/><path d="M221.750,163.638 L221.750,190.597" stroke="#79608f" stroke-width="0.8" fill="none"/><path d="M229.086,163.638 L229.086,190.597" stroke="#79608f" stroke-width="0.8" fill="none"/><path d="M236.422,163.638 L236.422,190.597" stroke="#79608f" stroke-width="0.8" fill="none"/><path d="M243.758,163.638 L243.758,190.597" stroke="#79608f" stroke-width="0.8" fill="none"/><path d="M251.095,163.638 L251.095,190.597" stroke="#79608f" stroke-width="0.8" fill="none"/><path d="M258.431,163.638 L258.431,190.597" stroke="#79608f" stroke-width="0.8" fill="none"/><path d="M265.767,163.638 L265.767,190.597" stroke="#79608f" stroke-width="0.8" fill="none"/><path d="M273.103,163.638 L273.103,190.597" stroke="#79608f" stroke-width="0.8" fill="none"/><path d="M426.230,277.903 L401.985,283.809" stroke="#147d70" stroke-width="2" fill="none"/><path d="M401.985,283.809 L407.388,279.359" stroke="#147d70" stroke-width="2" fill="none"/><path d="M401.985,283.809 L408.829,285.276" stroke="#147d70" stroke-width="2" fill="none"/><circle cx="426.23015501209284" cy="277.90254868114994" r="4" fill="#147d70"/><text x="432.230" y="270.903" font-size="13">C0</text><path d="M417.296,366.011 L392.344,365.953" stroke="#c56a33" stroke-width="2" fill="none"/><path d="M392.344,365.953 L398.654,362.923" stroke="#c56a33" stroke-width="2" fill="none"/><path d="M392.344,365.953 L398.640,369.013" stroke="#c56a33" stroke-width="2" fill="none"/><circle cx="417.29615371600335" cy="366.0106836404163" r="4" fill="#c56a33"/><text x="423.296" y="359.011" font-size="13">C1</text><path d="M366.601,282.286 L342.559,288.943" stroke="#626aca" stroke-width="2" fill="none"/><path d="M342.559,288.943 L347.821,284.326" stroke="#626aca" stroke-width="2" fill="none"/><path d="M342.559,288.943 L349.446,290.195" stroke="#626aca" stroke-width="2" fill="none"/><circle cx="366.60115933856923" cy="282.2861271752477" r="4" fill="#626aca"/><text x="372.601" y="275.286" font-size="13">C2</text><path d="M434.968,332.265 L410.064,333.822" stroke="#aa4984" stroke-width="2" fill="none"/><path d="M410.064,333.822 L416.165,330.390" stroke="#aa4984" stroke-width="2" fill="none"/><path d="M410.064,333.822 L416.544,336.467" stroke="#aa4984" stroke-width="2" fill="none"/><circle cx="434.96771764635463" cy="332.26502597365277" r="4" fill="#aa4984"/><text x="440.968" y="325.265" font-size="13">C3</text><text x="40.000" y="490.000" font-size="13">X/Z metres · 15.8 × 10.8 m bounding envelope</text><path d="M52.481,177.117 L447.519,177.117" stroke="#909a8b" stroke-width="1" stroke-dasharray="5 4" fill="none"/><path d="M552.481,241.687 L947.519,241.687" stroke="#20382e" stroke-width="2.3" fill="none"/><path d="M552.481,420.000 L552.481,241.687" stroke="#20382e" stroke-width="1.5" fill="none"/><path d="M947.519,420.000 L947.519,241.687" stroke="#20382e" stroke-width="1.5" fill="none"/><path d="M552.481,420.000 L947.519,420.000" stroke="#65745f" stroke-width="3" fill="none"/><path d="M552.481,420.000 L552.481,420.000" stroke="#8d9a85" stroke-width="1" fill="none"/><path d="M947.519,420.000 L947.519,420.000" stroke="#8d9a85" stroke-width="1" fill="none"/><path d="M587.135,347.116 L641.054,347.116" stroke="#9f80b4" stroke-width="4.992567880601289" fill="none"/><path d="M641.054,347.116 L648.390,347.116" stroke="#79608f" stroke-width="1.5" fill="none"/><path d="M648.390,347.116 L648.390,351.165" stroke="#79608f" stroke-width="1.5" fill="none"/><path d="M648.390,351.165 L655.726,351.165" stroke="#79608f" stroke-width="1.5" fill="none"/><path d="M655.726,351.165 L655.726,355.215" stroke="#79608f" stroke-width="1.5" fill="none"/><path d="M655.726,355.215 L663.062,355.215" stroke="#79608f" stroke-width="1.5" fill="none"/><path d="M663.062,355.215 L663.062,359.264" stroke="#79608f" stroke-width="1.5" fill="none"/><path d="M663.062,359.264 L670.398,359.264" stroke="#79608f" stroke-width="1.5" fill="none"/><path d="M670.398,359.264 L670.398,363.313" stroke="#79608f" stroke-width="1.5" fill="none"/><path d="M670.398,363.313 L677.734,363.313" stroke="#79608f" stroke-width="1.5" fill="none"/><path d="M677.734,363.313 L677.734,367.362" stroke="#79608f" stroke-width="1.5" fill="none"/><path d="M677.734,367.362 L685.070,367.362" stroke="#79608f" stroke-width="1.5" fill="none"/><path d="M685.070,367.362 L685.070,371.411" stroke="#79608f" stroke-width="1.5" fill="none"/><path d="M685.070,371.411 L692.406,371.411" stroke="#79608f" stroke-width="1.5" fill="none"/><path d="M692.406,371.411 L692.406,375.460" stroke="#79608f" stroke-width="1.5" fill="none"/><path d="M692.406,375.460 L699.742,375.460" stroke="#79608f" stroke-width="1.5" fill="none"/><path d="M699.742,375.460 L699.742,379.509" stroke="#79608f" stroke-width="1.5" fill="none"/><path d="M699.742,379.509 L707.078,379.509" stroke="#79608f" stroke-width="1.5" fill="none"/><path d="M707.078,379.509 L707.078,383.558" stroke="#79608f" stroke-width="1.5" fill="none"/><path d="M707.078,383.558 L714.414,383.558" stroke="#79608f" stroke-width="1.5" fill="none"/><path d="M714.414,383.558 L714.414,387.607" stroke="#79608f" stroke-width="1.5" fill="none"/><path d="M714.414,387.607 L721.750,387.607" stroke="#79608f" stroke-width="1.5" fill="none"/><path d="M721.750,387.607 L721.750,391.656" stroke="#79608f" stroke-width="1.5" fill="none"/><path d="M721.750,391.656 L729.086,391.656" stroke="#79608f" stroke-width="1.5" fill="none"/><path d="M729.086,391.656 L729.086,395.705" stroke="#79608f" stroke-width="1.5" fill="none"/><path d="M729.086,395.705 L736.422,395.705" stroke="#79608f" stroke-width="1.5" fill="none"/><path d="M736.422,395.705 L736.422,399.755" stroke="#79608f" stroke-width="1.5" fill="none"/><path d="M736.422,399.755 L743.758,399.755" stroke="#79608f" stroke-width="1.5" fill="none"/><path d="M743.758,399.755 L743.758,403.804" stroke="#79608f" stroke-width="1.5" fill="none"/><path d="M743.758,403.804 L751.095,403.804" stroke="#79608f" stroke-width="1.5" fill="none"/><path d="M751.095,403.804 L751.095,407.853" stroke="#79608f" stroke-width="1.5" fill="none"/><path d="M751.095,407.853 L758.431,407.853" stroke="#79608f" stroke-width="1.5" fill="none"/><path d="M758.431,407.853 L758.431,411.902" stroke="#79608f" stroke-width="1.5" fill="none"/><path d="M758.431,411.902 L765.767,411.902" stroke="#79608f" stroke-width="1.5" fill="none"/><path d="M765.767,411.902 L765.767,415.951" stroke="#79608f" stroke-width="1.5" fill="none"/><path d="M765.767,415.951 L773.103,415.951" stroke="#79608f" stroke-width="1.5" fill="none"/><path d="M773.103,415.951 L773.103,420.000" stroke="#79608f" stroke-width="1.5" fill="none"/><text x="530.000" y="61.000" font-size="15">Envelope section · roof pitch 0.0°</text><text x="530.000" y="490.000" font-size="13">Base floor 0 m · furnishings omitted in section</text></g></svg>
