<?xml version="1.0" encoding="utf-8" standalone="no"?>
<!DOCTYPE svg PUBLIC "-//W3C//DTD SVG 1.1//EN"
  "http://www.w3.org/Graphics/SVG/1.1/DTD/svg11.dtd">
<svg xmlns:xlink="http://www.w3.org/1999/xlink" width="309.6pt" height="230.4pt" viewBox="0 0 309.6 230.4" xmlns="http://www.w3.org/2000/svg" version="1.1">
 <metadata>
  <rdf:RDF xmlns:dc="http://purl.org/dc/elements/1.1/" xmlns:cc="http://creativecommons.org/ns#" xmlns:rdf="http://www.w3.org/1999/02/22-rdf-syntax-ns#">
   <cc:Work>
    <dc:type rdf:resource="http://purl.org/dc/dcmitype/StillImage"/>
    <dc:date>2026-09-28T00:12:06.477900</dc:date>
    <dc:format>image/svg+xml</dc:format>
    <dc:creator>
     <cc:Agent>
      <dc:title>Matplotlib v3.11.2, https://matplotlib.org/</dc:title>
     </cc:Agent>
    </dc:creator>
   </cc:Work>
  </rdf:RDF>
 </metadata>
 <defs>
  <style type="text/css">*{stroke-linejoin: round; stroke-linecap: butt}</style>
 </defs>
 <g id="figure_1">
  <g id="patch_1">
   <path d="M 0 230.4
L 309.6 230.4
L 309.6 0
L 0 0
z
" style="fill: #ffffff"/>
  </g>
  <g id="axes_1">
   <g id="patch_2">
    <path d="M 39.58774 199.898979
L 306.59976 199.898979
L 306.59976 25.358521
L 39.58774 25.358521
z
" style="fill: #ffffff"/>
   </g>
   <g id="matplotlib.axis_1">
    <g id="xtick_1">
     <g id="line2d_1"/>
     <g id="text_1">
      <text style="font-size: 10px; font-family: 'DejaVu Sans'; text-anchor: middle; fill: #58655f" x="46.079576" y="210.996635" transform="rotate(-0 46.079576 210.996635)">0</text>
     </g>
    </g>
    <g id="xtick_2">
     <g id="line2d_2"/>
     <g id="text_2">
      <text style="font-size: 10px; font-family: 'DejaVu Sans'; text-anchor: middle; fill: #58655f" x="93.121862" y="210.996635" transform="rotate(-0 93.121862 210.996635)">5</text>
     </g>
    </g>
    <g id="xtick_3">
     <g id="line2d_3"/>
     <g id="text_3">
      <text style="font-size: 10px; font-family: 'DejaVu Sans'; text-anchor: middle; fill: #58655f" x="140.164149" y="210.996635" transform="rotate(-0 140.164149 210.996635)">10</text>
     </g>
    </g>
    <g id="xtick_4">
     <g id="line2d_4"/>
     <g id="text_4">
      <text style="font-size: 10px; font-family: 'DejaVu Sans'; text-anchor: middle; fill: #58655f" x="187.206436" y="210.996635" transform="rotate(-0 187.206436 210.996635)">15</text>
     </g>
    </g>
    <g id="xtick_5">
     <g id="line2d_5"/>
     <g id="text_5">
      <text style="font-size: 10px; font-family: 'DejaVu Sans'; text-anchor: middle; fill: #58655f" x="234.248723" y="210.996635" transform="rotate(-0 234.248723 210.996635)">20</text>
     </g>
    </g>
    <g id="xtick_6">
     <g id="line2d_6"/>
     <g id="text_6">
      <text style="font-size: 10px; font-family: 'DejaVu Sans'; text-anchor: middle; fill: #58655f" x="281.29101" y="210.996635" transform="rotate(-0 281.29101 210.996635)">25</text>
     </g>
    </g>
    <g id="text_7">
     <text style="font-size: 10px; font-family: 'DejaVu Sans'; text-anchor: middle; fill: #58655f" x="173.09375" y="224.997416" transform="rotate(-0 173.09375 224.997416)">chairs · zeros included</text>
    </g>
   </g>
   <g id="matplotlib.axis_2">
    <g id="ytick_1">
     <g id="line2d_7">
      <path d="M 39.58774 199.898979
L 306.59976 199.898979
" clip-path="url(#pf25c1317f7)" style="fill: none; stroke: #b0b0b0; stroke-opacity: 0.16; stroke-width: 0.8; stroke-linecap: square"/>
     </g>
     <g id="line2d_8"/>
     <g id="text_8">
      <text style="font-size: 10px; font-family: 'DejaVu Sans'; text-anchor: end; fill: #58655f" x="36.08774" y="203.697807" transform="rotate(-0 36.08774 203.697807)">0</text>
     </g>
    </g>
    <g id="ytick_2">
     <g id="line2d_9">
      <path d="M 39.58774 166.982344
L 306.59976 166.982344
" clip-path="url(#pf25c1317f7)" style="fill: none; stroke: #b0b0b0; stroke-opacity: 0.16; stroke-width: 0.8; stroke-linecap: square"/>
     </g>
     <g id="line2d_10"/>
     <g id="text_9">
      <text style="font-size: 10px; font-family: 'DejaVu Sans'; text-anchor: end; fill: #58655f" x="36.08774" y="170.781172" transform="rotate(-0 36.08774 170.781172)">20</text>
     </g>
    </g>
    <g id="ytick_3">
     <g id="line2d_11">
      <path d="M 39.58774 134.065709
L 306.59976 134.065709
" clip-path="url(#pf25c1317f7)" style="fill: none; stroke: #b0b0b0; stroke-opacity: 0.16; stroke-width: 0.8; stroke-linecap: square"/>
     </g>
     <g id="line2d_12"/>
     <g id="text_10">
      <text style="font-size: 10px; font-family: 'DejaVu Sans'; text-anchor: end; fill: #58655f" x="36.08774" y="137.864537" transform="rotate(-0 36.08774 137.864537)">40</text>
     </g>
    </g>
    <g id="ytick_4">
     <g id="line2d_13">
      <path d="M 39.58774 101.149074
L 306.59976 101.149074
" clip-path="url(#pf25c1317f7)" style="fill: none; stroke: #b0b0b0; stroke-opacity: 0.16; stroke-width: 0.8; stroke-linecap: square"/>
     </g>
     <g id="line2d_14"/>
     <g id="text_11">
      <text style="font-size: 10px; font-family: 'DejaVu Sans'; text-anchor: end; fill: #58655f" x="36.08774" y="104.947902" transform="rotate(-0 36.08774 104.947902)">60</text>
     </g>
    </g>
    <g id="ytick_5">
     <g id="line2d_15">
      <path d="M 39.58774 68.232438
L 306.59976 68.232438
" clip-path="url(#pf25c1317f7)" style="fill: none; stroke: #b0b0b0; stroke-opacity: 0.16; stroke-width: 0.8; stroke-linecap: square"/>
     </g>
     <g id="line2d_16"/>
     <g id="text_12">
      <text style="font-size: 10px; font-family: 'DejaVu Sans'; text-anchor: end; fill: #58655f" x="36.08774" y="72.031267" transform="rotate(-0 36.08774 72.031267)">80</text>
     </g>
    </g>
    <g id="ytick_6">
     <g id="line2d_17">
      <path d="M 39.58774 35.315803
L 306.59976 35.315803
" clip-path="url(#pf25c1317f7)" style="fill: none; stroke: #b0b0b0; stroke-opacity: 0.16; stroke-width: 0.8; stroke-linecap: square"/>
     </g>
     <g id="line2d_18"/>
     <g id="text_13">
      <text style="font-size: 10px; font-family: 'DejaVu Sans'; text-anchor: end; fill: #58655f" x="36.08774" y="39.114631" transform="rotate(-0 36.08774 39.114631)">100</text>
     </g>
    </g>
    <g id="text_14">
     <text style="font-size: 10px; font-family: 'DejaVu Sans'; text-anchor: middle; fill: #58655f" x="10.597896" y="112.62875" transform="rotate(-90 10.597896 112.62875)">count</text>
    </g>
   </g>
   <g id="patch_3">
    <path d="M 51.72465 199.898979
L 59.251416 199.898979
L 59.251416 193.315652
L 51.72465 193.315652
z
" clip-path="url(#pf25c1317f7)" style="fill: #247c68"/>
   </g>
   <g id="patch_4">
    <path d="M 61.133107 199.898979
L 68.659873 199.898979
L 68.659873 139.003204
L 61.133107 139.003204
z
" clip-path="url(#pf25c1317f7)" style="fill: #247c68"/>
   </g>
   <g id="patch_5">
    <path d="M 70.541565 199.898979
L 78.068331 199.898979
L 78.068331 73.169934
L 70.541565 73.169934
z
" clip-path="url(#pf25c1317f7)" style="fill: #247c68"/>
   </g>
   <g id="patch_6">
    <path d="M 79.950022 199.898979
L 87.476788 199.898979
L 87.476788 33.669972
L 79.950022 33.669972
z
" clip-path="url(#pf25c1317f7)" style="fill: #247c68"/>
   </g>
   <g id="patch_7">
    <path d="M 89.358479 199.898979
L 96.885245 199.898979
L 96.885245 35.315803
L 89.358479 35.315803
z
" clip-path="url(#pf25c1317f7)" style="fill: #247c68"/>
   </g>
   <g id="patch_8">
    <path d="M 98.766937 199.898979
L 106.293703 199.898979
L 106.293703 55.065784
L 98.766937 55.065784
z
" clip-path="url(#pf25c1317f7)" style="fill: #247c68"/>
   </g>
   <g id="patch_9">
    <path d="M 108.175394 199.898979
L 115.70216 199.898979
L 115.70216 51.774121
L 108.175394 51.774121
z
" clip-path="url(#pf25c1317f7)" style="fill: #247c68"/>
   </g>
   <g id="patch_10">
    <path d="M 117.583852 199.898979
L 125.110617 199.898979
L 125.110617 92.919915
L 117.583852 92.919915
z
" clip-path="url(#pf25c1317f7)" style="fill: #247c68"/>
   </g>
   <g id="patch_11">
    <path d="M 126.992309 199.898979
L 134.519075 199.898979
L 134.519075 96.211578
L 126.992309 96.211578
z
" clip-path="url(#pf25c1317f7)" style="fill: #247c68"/>
   </g>
   <g id="patch_12">
    <path d="M 136.400766 199.898979
L 143.927532 199.898979
L 143.927532 112.669896
L 136.400766 112.669896
z
" clip-path="url(#pf25c1317f7)" style="fill: #247c68"/>
   </g>
   <g id="patch_13">
    <path d="M 145.809224 199.898979
L 153.33599 199.898979
L 153.33599 117.607391
L 145.809224 117.607391
z
" clip-path="url(#pf25c1317f7)" style="fill: #247c68"/>
   </g>
   <g id="patch_14">
    <path d="M 155.217681 199.898979
L 162.744447 199.898979
L 162.744447 122.544886
L 155.217681 122.544886
z
" clip-path="url(#pf25c1317f7)" style="fill: #247c68"/>
   </g>
   <g id="patch_15">
    <path d="M 164.626138 199.898979
L 172.152904 199.898979
L 172.152904 153.81569
L 164.626138 153.81569
z
" clip-path="url(#pf25c1317f7)" style="fill: #247c68"/>
   </g>
   <g id="patch_16">
    <path d="M 174.034596 199.898979
L 181.561362 199.898979
L 181.561362 139.003204
L 174.034596 139.003204
z
" clip-path="url(#pf25c1317f7)" style="fill: #247c68"/>
   </g>
   <g id="patch_17">
    <path d="M 183.443053 199.898979
L 190.969819 199.898979
L 190.969819 155.461521
L 183.443053 155.461521
z
" clip-path="url(#pf25c1317f7)" style="fill: #247c68"/>
   </g>
   <g id="patch_18">
    <path d="M 192.85151 199.898979
L 200.378276 199.898979
L 200.378276 142.294867
L 192.85151 142.294867
z
" clip-path="url(#pf25c1317f7)" style="fill: #247c68"/>
   </g>
   <g id="patch_19">
    <path d="M 202.259968 199.898979
L 209.786734 199.898979
L 209.786734 162.044848
L 202.259968 162.044848
z
" clip-path="url(#pf25c1317f7)" style="fill: #247c68"/>
   </g>
   <g id="patch_20">
    <path d="M 211.668425 199.898979
L 219.195191 199.898979
L 219.195191 148.878194
L 211.668425 148.878194
z
" clip-path="url(#pf25c1317f7)" style="fill: #247c68"/>
   </g>
   <g id="patch_21">
    <path d="M 221.076883 199.898979
L 228.603648 199.898979
L 228.603648 158.753185
L 221.076883 158.753185
z
" clip-path="url(#pf25c1317f7)" style="fill: #247c68"/>
   </g>
   <g id="patch_22">
    <path d="M 230.48534 199.898979
L 238.012106 199.898979
L 238.012106 176.857334
L 230.48534 176.857334
z
" clip-path="url(#pf25c1317f7)" style="fill: #247c68"/>
   </g>
   <g id="patch_23">
    <path d="M 239.893797 199.898979
L 247.420563 199.898979
L 247.420563 186.732325
L 239.893797 186.732325
z
" clip-path="url(#pf25c1317f7)" style="fill: #247c68"/>
   </g>
   <g id="patch_24">
    <path d="M 249.302255 199.898979
L 256.829021 199.898979
L 256.829021 186.732325
L 249.302255 186.732325
z
" clip-path="url(#pf25c1317f7)" style="fill: #247c68"/>
   </g>
   <g id="patch_25">
    <path d="M 258.710712 199.898979
L 266.237478 199.898979
L 266.237478 193.315652
L 258.710712 193.315652
z
" clip-path="url(#pf25c1317f7)" style="fill: #247c68"/>
   </g>
   <g id="patch_26">
    <path d="M 268.119169 199.898979
L 275.645935 199.898979
L 275.645935 193.315652
L 268.119169 193.315652
z
" clip-path="url(#pf25c1317f7)" style="fill: #247c68"/>
   </g>
   <g id="patch_27">
    <path d="M 277.527627 199.898979
L 285.054393 199.898979
L 285.054393 194.961483
L 277.527627 194.961483
z
" clip-path="url(#pf25c1317f7)" style="fill: #247c68"/>
   </g>
   <g id="patch_28">
    <path d="M 286.936084 199.898979
L 294.46285 199.898979
L 294.46285 196.607315
L 286.936084 196.607315
z
" clip-path="url(#pf25c1317f7)" style="fill: #247c68"/>
   </g>
   <g id="patch_29">
    <path d="M 39.58774 199.898979
L 39.58774 25.358521
" style="fill: none; stroke: #c4cbc6; stroke-width: 0.8; stroke-linejoin: miter; stroke-linecap: square"/>
   </g>
   <g id="patch_30">
    <path d="M 39.58774 199.898979
L 306.59976 199.898979
" style="fill: none; stroke: #c4cbc6; stroke-width: 0.8; stroke-linejoin: miter; stroke-linecap: square"/>
   </g>
   <g id="text_15">
    <text style="font-size: 11px; font-family: 'DejaVu Sans'; text-anchor: start; fill: #253b32" x="39.58774" y="11.358521" transform="rotate(-0 39.58774 11.358521)">Chairs per interior  ·  n=1,024</text>
   </g>
  </g>
 </g>
 <defs>
  <clipPath id="pf25c1317f7">
   <rect x="39.58774" y="25.358521" width="267.01202" height="174.540457"/>
  </clipPath>
 </defs>
</svg>
