<svg xmlns="http://www.w3.org/2000/svg" xmlns:xlink="http://www.w3.org/1999/xlink" width="1000" height="510" viewBox="0 0 1000 510"><rect width="100%" height="100%" fill="#f7f8f3"/><g font-family="DejaVu Sans" fill="#20382e"><text x="24.000" y="29.000" font-size="18">Seed 19 · 119.8 m² · plan and metric envelope section</text><polygon points="195.819,82.999 300.535,82.999 319.372,101.837 329.480,437.001 170.520,437.001 176.982,101.837" fill="#eff3e9" stroke="#20382e" stroke-width="1.5"/><polygon points="234.002,125.477 223.263,143.714 209.518,135.620 220.257,117.383" fill="#dce3d6" stroke="#b7c2b0" stroke-width="1.5"/><polygon points="214.172,114.604 210.925,128.509 197.020,125.263 200.267,111.358" fill="#dce3d6" stroke="#b7c2b0" stroke-width="1.5"/><polygon points="294.541,107.097 256.032,129.477 245.785,111.845 284.294,89.465" fill="#dce3d6" stroke="#b7c2b0" stroke-width="1.5"/><polygon points="244.901,247.843 260.274,222.796 274.813,231.719 259.440,256.767" fill="#dce3d6" stroke="#b7c2b0" stroke-width="1.5"/><polygon points="250.047,273.267 269.895,250.419 280.215,259.384 260.367,282.232" fill="#dce3d6" stroke="#b7c2b0" stroke-width="1.5"/><polygon points="268.989,281.402 275.723,268.811 288.315,275.546 281.580,288.137" fill="#dce3d6" stroke="#b7c2b0" stroke-width="1.5"/><polygon points="185.904,393.239 179.868,351.928 200.943,348.849 206.979,390.160" fill="#dce3d6" stroke="#b7c2b0" stroke-width="1.5"/><polygon points="274.914,374.828 273.824,351.947 288.466,351.250 289.555,374.131" fill="#dce3d6" stroke="#b7c2b0" stroke-width="1.5"/><polygon points="291.213,366.831 296.073,353.404 309.499,358.264 304.639,371.691" fill="#dce3d6" stroke="#b7c2b0" stroke-width="1.5"/><polygon points="189.741,259.146 182.524,221.831 203.158,217.841 210.375,255.155" fill="#dce3d6" stroke="#b7c2b0" stroke-width="1.5"/><polygon points="268.310,211.656 285.564,211.656 285.564,218.795 268.310,218.795" fill="#dce3d6" stroke="#b7c2b0" stroke-width="1.5"/><polygon points="312.576,391.119 320.345,391.119 320.345,398.888 312.576,398.888" fill="#dce3d6" stroke="#b7c2b0" stroke-width="1.5"/><polygon points="216.232,321.750 262.068,321.750 262.068,394.323 216.232,394.323" fill="#a4cee0" stroke="#899781" stroke-width="1.5"/><text x="216.150" y="358.037" font-size="12">-0.15 m</text><polygon points="216.232,394.323 262.068,394.323 262.068,400.336 216.232,400.336" fill="#a4cee0" stroke="#899781" stroke-width="1.5"/><text x="216.150" y="397.330" font-size="12">-0.00 m</text><circle cx="228.79258781965723" cy="241.7114147177295" r="6.229775689501981" fill="#45594a"/><circle cx="209.14661159716758" cy="301.2641719199464" r="6.217186916078502" fill="#45594a"/><circle cx="258.3637874372616" cy="295.00246745633103" r="5.4404202950459375" fill="#45594a"/><path d="M175.059,201.576 L234.263,201.576" stroke="#65745f" stroke-width="2" fill="none"/><path d="M260.717,201.576 L322.380,201.576" stroke="#65745f" stroke-width="2" fill="none"/><polygon points="247.490,196.576 242.490,205.576 252.490,205.576" fill="#bc6e35" stroke="#bc6e35" stroke-width="1.5"/><path d="M201.467,82.999 L294.887,82.999" stroke="#2797a5" stroke-width="4" fill="none"/><path d="M201.467,82.999 L294.887,82.999" stroke="#2797a5" stroke-width="4" fill="none"/><path d="M319.569,108.350 L322.607,209.087" stroke="#2797a5" stroke-width="4" fill="none"/><path d="M322.913,219.259 L326.192,327.975" stroke="#2797a5" stroke-width="4" fill="none"/><path d="M326.499,338.147 L329.283,430.487" stroke="#2797a5" stroke-width="4" fill="none"/><path d="M170.599,432.899 L171.721,374.735" stroke="#2797a5" stroke-width="4" fill="none"/><path d="M170.599,432.899 L171.721,374.735" stroke="#2797a5" stroke-width="4" fill="none"/><path d="M172.085,355.840 L173.339,290.813" stroke="#2797a5" stroke-width="4" fill="none"/><path d="M172.085,355.840 L173.339,290.813" stroke="#2797a5" stroke-width="4" fill="none"/><path d="M173.703,271.917 L175.043,202.407" stroke="#2797a5" stroke-width="4" fill="none"/><path d="M173.703,271.917 L175.043,202.407" stroke="#2797a5" stroke-width="4" fill="none"/><path d="M175.407,183.511 L176.902,105.938" stroke="#2797a5" stroke-width="4" fill="none"/><path d="M175.407,183.511 L176.902,105.938" stroke="#2797a5" stroke-width="4" fill="none"/><path d="M254.656,239.889 L250.203,260.161" stroke="#147d70" stroke-width="2" fill="none"/><path d="M250.203,260.161 L248.581,253.352" stroke="#147d70" stroke-width="2" fill="none"/><path d="M250.203,260.161 L254.529,254.658" stroke="#147d70" stroke-width="2" fill="none"/><circle cx="254.65596905265457" cy="239.8887485693506" r="4" fill="#147d70"/><text x="260.656" y="232.889" font-size="13">C0</text><path d="M200.969,239.602 L207.273,259.539" stroke="#c56a33" stroke-width="2" fill="none"/><path d="M207.273,259.539 L202.470,254.447" stroke="#c56a33" stroke-width="2" fill="none"/><path d="M207.273,259.539 L208.276,252.612" stroke="#c56a33" stroke-width="2" fill="none"/><circle cx="200.96935841649594" cy="239.60242719361702" r="4" fill="#c56a33"/><text x="206.969" y="232.602" font-size="13">C1</text><path d="M270.683,303.504 L257.073,319.493" stroke="#626aca" stroke-width="2" fill="none"/><path d="M257.073,319.493 L258.840,312.719" stroke="#626aca" stroke-width="2" fill="none"/><path d="M257.073,319.493 L263.477,316.667" stroke="#626aca" stroke-width="2" fill="none"/><circle cx="270.68298050100714" cy="303.50373198431123" r="4" fill="#626aca"/><text x="276.683" y="296.504" font-size="13">C2</text><path d="M282.779,231.225 L274.423,250.437" stroke="#aa4984" stroke-width="2" fill="none"/><path d="M274.423,250.437 L274.145,243.442" stroke="#aa4984" stroke-width="2" fill="none"/><path d="M274.423,250.437 L279.729,245.871" stroke="#aa4984" stroke-width="2" fill="none"/><circle cx="282.77867026853164" cy="231.22522804412446" r="4" fill="#aa4984"/><text x="288.779" y="224.225" font-size="13">C3</text><text x="40.000" y="490.000" font-size="13">X/Z metres · 7.6 × 16.9 m bounding envelope</text><path d="M239.150,82.999 L239.150,437.001" stroke="#909a8b" stroke-width="1" stroke-dasharray="5 4" fill="none"/><path d="M572.999,343.835 L927.001,359.792" stroke="#20382e" stroke-width="2.3" fill="none"/><path d="M572.999,420.000 L572.999,343.835" stroke="#20382e" stroke-width="1.5" fill="none"/><path d="M927.001,420.000 L927.001,359.792" stroke="#20382e" stroke-width="1.5" fill="none"/><path d="M572.999,420.000 L811.750,420.000" stroke="#65745f" stroke-width="3" fill="none"/><path d="M572.999,420.000 L572.999,420.000" stroke="#8d9a85" stroke-width="1" fill="none"/><path d="M811.750,420.000 L811.750,420.000" stroke="#8d9a85" stroke-width="1" fill="none"/><path d="M811.750,423.234 L884.323,423.234" stroke="#458eae" stroke-width="3" fill="none"/><path d="M811.750,420.000 L811.750,423.234" stroke="#8d9a85" stroke-width="1" fill="none"/><path d="M884.323,420.000 L884.323,423.234" stroke="#8d9a85" stroke-width="1" fill="none"/><path d="M884.323,420.000 L890.336,420.000" stroke="#65745f" stroke-width="3" fill="none"/><path d="M884.323,420.000 L884.323,420.000" stroke="#8d9a85" stroke-width="1" fill="none"/><path d="M890.336,420.000 L890.336,420.000" stroke="#8d9a85" stroke-width="1" fill="none"/><path d="M890.336,420.000 L927.001,420.000" stroke="#65745f" stroke-width="3" fill="none"/><path d="M890.336,420.000 L890.336,420.000" stroke="#8d9a85" stroke-width="1" fill="none"/><path d="M927.001,420.000 L927.001,420.000" stroke="#8d9a85" stroke-width="1" fill="none"/><text x="530.000" y="61.000" font-size="15">Envelope section · roof pitch 2.8°</text><text x="530.000" y="490.000" font-size="13">Base floor 0 m · furnishings omitted in section</text></g></svg>
