<svg xmlns="http://www.w3.org/2000/svg" xmlns:xlink="http://www.w3.org/1999/xlink" width="1000" height="510" viewBox="0 0 1000 510"><rect width="100%" height="100%" fill="#f7f8f3"/><g font-family="DejaVu Sans" fill="#20382e"><text x="24.000" y="29.000" font-size="18">Seed 2 · 67.1 m² · plan and metric envelope section</text><polygon points="82.471,105.751 208.336,105.751 208.336,144.590 254.511,144.590 254.511,105.751 412.361,105.751 432.311,125.701 439.466,414.249 60.534,414.249 62.521,125.701" fill="#eff3e9" stroke="#20382e" stroke-width="1.5"/><polygon points="154.623,158.049 150.196,236.556 110.897,234.340 115.324,155.833" fill="#dce3d6" stroke="#b7c2b0" stroke-width="1.5"/><polygon points="103.913,182.346 105.537,210.224 77.659,211.848 76.035,183.970" fill="#dce3d6" stroke="#b7c2b0" stroke-width="1.5"/><polygon points="312.434,170.648 330.187,121.138 354.656,129.912 336.903,179.422" fill="#dce3d6" stroke="#b7c2b0" stroke-width="1.5"/><polygon points="349.907,176.929 353.699,149.262 381.366,153.053 377.575,180.720" fill="#dce3d6" stroke="#b7c2b0" stroke-width="1.5"/><polygon points="156.669,194.128 162.204,151.909 185.509,154.965 179.974,197.183" fill="#dce3d6" stroke="#b7c2b0" stroke-width="1.5"/><polygon points="179.745,188.683 178.417,160.789 206.311,159.461 207.639,187.355" fill="#dce3d6" stroke="#b7c2b0" stroke-width="1.5"/><polygon points="239.802,331.544 249.348,371.726 213.629,380.212 204.083,340.029" fill="#dce3d6" stroke="#b7c2b0" stroke-width="1.5"/><polygon points="200.734,348.042 209.750,379.831 177.953,388.849 168.938,357.060" fill="#dce3d6" stroke="#b7c2b0" stroke-width="1.5"/><polygon points="155.014,266.144 175.358,303.679 148.136,318.435 127.791,280.900" fill="#dce3d6" stroke="#b7c2b0" stroke-width="1.5"/><polygon points="130.876,287.417 139.112,314.100 112.429,322.337 104.192,295.654" fill="#dce3d6" stroke="#b7c2b0" stroke-width="1.5"/><polygon points="340.456,332.527 361.583,385.275 339.908,393.956 318.781,341.209" fill="#dce3d6" stroke="#b7c2b0" stroke-width="1.5"/><polygon points="326.154,352.824 333.946,379.640 307.130,387.432 299.338,360.616" fill="#dce3d6" stroke="#b7c2b0" stroke-width="1.5"/><polygon points="142.734,327.106 148.314,383.077 124.205,385.480 118.625,329.509" fill="#dce3d6" stroke="#b7c2b0" stroke-width="1.5"/><polygon points="119.626,337.601 127.370,364.431 100.539,372.175 92.795,345.344" fill="#dce3d6" stroke="#b7c2b0" stroke-width="1.5"/><polygon points="405.791,322.924 405.791,287.710 419.754,287.710 419.754,322.924" fill="#dce3d6" stroke="#b7c2b0" stroke-width="1.5"/><polygon points="420.165,167.500 420.165,229.101 405.381,229.101 405.381,167.500" fill="#dce3d6" stroke="#b7c2b0" stroke-width="1.5"/><circle cx="298.7354237314688" cy="329.134117056626" r="12.835504200975425" fill="#45594a"/><circle cx="221.8290905588973" cy="300.8139900426504" r="13.082126873542162" fill="#45594a"/><path d="M61.664,250.160 L326.121,250.160" stroke="#65745f" stroke-width="2" fill="none"/><path d="M384.147,250.160 L435.397,250.160" stroke="#65745f" stroke-width="2" fill="none"/><polygon points="355.134,245.160 350.134,254.160 360.134,254.160" fill="#bc6e35" stroke="#bc6e35" stroke-width="1.5"/><path d="M89.356,105.751 L201.452,105.751" stroke="#2797a5" stroke-width="4" fill="none"/><path d="M60.596,405.170 L62.458,134.780" stroke="#2797a5" stroke-width="4" fill="none"/><path d="M406.610,353.506 L367.544,365.921" stroke="#147d70" stroke-width="2" fill="none"/><path d="M367.544,365.921 L372.629,361.110" stroke="#147d70" stroke-width="2" fill="none"/><path d="M367.544,365.921 L374.474,366.913" stroke="#147d70" stroke-width="2" fill="none"/><circle cx="406.60983493190656" cy="353.5057135727566" r="4" fill="#147d70"/><text x="412.610" y="346.506" font-size="13">C0</text><path d="M361.719,309.333 L344.852,344.327" stroke="#c56a33" stroke-width="2" fill="none"/><path d="M344.852,344.327 L344.846,337.327" stroke="#c56a33" stroke-width="2" fill="none"/><path d="M344.852,344.327 L350.332,339.971" stroke="#c56a33" stroke-width="2" fill="none"/><circle cx="361.7189226569568" cy="309.33295492756486" r="4" fill="#c56a33"/><text x="367.719" y="302.333" font-size="13">C1</text><path d="M384.821,269.508 L362.628,300.458" stroke="#626aca" stroke-width="2" fill="none"/><path d="M362.628,300.458 L363.826,293.562" stroke="#626aca" stroke-width="2" fill="none"/><path d="M362.628,300.458 L368.775,297.110" stroke="#626aca" stroke-width="2" fill="none"/><circle cx="384.8208773679967" cy="269.50792478821677" r="4" fill="#626aca"/><text x="390.821" y="262.508" font-size="13">C2</text><path d="M375.197,291.779 L358.273,329.078" stroke="#aa4984" stroke-width="2" fill="none"/><path d="M358.273,329.078 L358.105,322.080" stroke="#aa4984" stroke-width="2" fill="none"/><path d="M358.273,329.078 L363.650,324.597" stroke="#aa4984" stroke-width="2" fill="none"/><circle cx="375.1971174208579" cy="291.77858450878773" r="4" fill="#aa4984"/><text x="381.197" y="284.779" font-size="13">C3</text><text x="40.000" y="490.000" font-size="13">X/Z metres · 9.2 × 7.5 m bounding envelope</text><path d="M250.000,144.590 L250.000,414.249" stroke="#909a8b" stroke-width="1" stroke-dasharray="5 4" fill="none"/><path d="M634.590,247.960 L904.249,241.612" stroke="#20382e" stroke-width="2.3" fill="none"/><path d="M634.590,420.000 L634.590,247.960" stroke="#20382e" stroke-width="1.5" fill="none"/><path d="M904.249,420.000 L904.249,241.612" stroke="#20382e" stroke-width="1.5" fill="none"/><path d="M634.590,420.000 L904.249,420.000" stroke="#65745f" stroke-width="3" fill="none"/><path d="M634.590,420.000 L634.590,420.000" stroke="#8d9a85" stroke-width="1" fill="none"/><path d="M904.249,420.000 L904.249,420.000" stroke="#8d9a85" stroke-width="1" fill="none"/><text x="530.000" y="61.000" font-size="15">Envelope section · roof pitch 1.4°</text><text x="530.000" y="490.000" font-size="13">Base floor 0 m · furnishings omitted in section</text></g></svg>
