<svg xmlns="http://www.w3.org/2000/svg" xmlns:xlink="http://www.w3.org/1999/xlink" width="1000" height="510" viewBox="0 0 1000 510"><rect width="100%" height="100%" fill="#f7f8f3"/><g font-family="DejaVu Sans" fill="#20382e"><text x="24.000" y="29.000" font-size="18">Seed 23 · 170.2 m² · plan and metric envelope section</text><polygon points="99.809,99.076 187.488,99.076 187.488,115.646 270.027,115.646 270.027,99.076 398.154,99.076 428.170,129.091 446.822,420.924 53.178,420.924 69.793,129.091" fill="#eff3e9" stroke="#20382e" stroke-width="1.5"/><polygon points="134.145,165.606 113.869,150.573 122.793,138.536 143.069,153.569" fill="#dce3d6" stroke="#b7c2b0" stroke-width="1.5"/><polygon points="149.517,146.069 131.968,142.430 135.606,124.881 153.155,128.519" fill="#dce3d6" stroke="#b7c2b0" stroke-width="1.5"/><polygon points="197.283,228.054 172.256,219.637 178.402,201.359 203.430,209.777" fill="#dce3d6" stroke="#b7c2b0" stroke-width="1.5"/><polygon points="205.250,197.843 188.001,202.712 183.133,185.464 200.381,180.595" fill="#dce3d6" stroke="#b7c2b0" stroke-width="1.5"/><polygon points="403.052,183.407 420.684,202.280 408.537,213.628 390.905,194.756" fill="#dce3d6" stroke="#b7c2b0" stroke-width="1.5"/><polygon points="376.587,207.504 394.045,211.560 389.989,229.017 372.531,224.961" fill="#dce3d6" stroke="#b7c2b0" stroke-width="1.5"/><polygon points="384.168,132.858 409.259,133.441 408.911,148.414 383.820,147.831" fill="#dce3d6" stroke="#b7c2b0" stroke-width="1.5"/><polygon points="388.185,152.654 406.040,154.208 404.485,172.063 386.630,170.509" fill="#dce3d6" stroke="#b7c2b0" stroke-width="1.5"/><polygon points="133.346,244.829 170.274,270.747 155.758,291.430 118.830,265.512" fill="#dce3d6" stroke="#b7c2b0" stroke-width="1.5"/><polygon points="130.779,277.072 140.617,292.053 125.636,301.891 115.798,286.910" fill="#dce3d6" stroke="#b7c2b0" stroke-width="1.5"/><polygon points="91.415,264.229 112.145,282.648 101.917,294.159 81.187,275.741" fill="#dce3d6" stroke="#b7c2b0" stroke-width="1.5"/><polygon points="95.019,290.972 90.407,308.291 73.088,303.680 77.700,286.361" fill="#dce3d6" stroke="#b7c2b0" stroke-width="1.5"/><polygon points="296.369,354.379 318.856,376.182 308.524,386.838 286.037,365.036" fill="#dce3d6" stroke="#b7c2b0" stroke-width="1.5"/><polygon points="292.126,374.766 299.953,390.889 283.829,398.716 276.003,382.593" fill="#dce3d6" stroke="#b7c2b0" stroke-width="1.5"/><polygon points="260.027,268.101 263.381,302.482 241.449,304.622 238.095,270.240" fill="#dce3d6" stroke="#b7c2b0" stroke-width="1.5"/><polygon points="293.892,131.075 323.579,156.478 310.373,171.912 280.685,146.509" fill="#dce3d6" stroke="#b7c2b0" stroke-width="1.5"/><polygon points="285.724,154.672 303.040,167.824 288.573,186.871 271.257,173.719" fill="#dce3d6" stroke="#b7c2b0" stroke-width="1.5"/><polygon points="305.959,187.769 329.319,200.958 321.412,214.962 298.053,201.774" fill="#dce3d6" stroke="#b7c2b0" stroke-width="1.5"/><polygon points="292.618,209.521 310.415,211.635 308.301,229.432 290.503,227.318" fill="#dce3d6" stroke="#b7c2b0" stroke-width="1.5"/><polygon points="148.075,400.194 144.148,370.882 160.562,368.683 164.489,397.995" fill="#dce3d6" stroke="#b7c2b0" stroke-width="1.5"/><polygon points="171.916,395.062 165.240,378.430 181.872,371.753 188.549,388.386" fill="#dce3d6" stroke="#b7c2b0" stroke-width="1.5"/><polygon points="74.320,367.375 75.723,339.679 91.952,340.501 90.549,368.198" fill="#dce3d6" stroke="#b7c2b0" stroke-width="1.5"/><polygon points="103.700,366.367 92.987,351.998 107.356,341.286 118.068,355.655" fill="#dce3d6" stroke="#b7c2b0" stroke-width="1.5"/><polygon points="75.845,375.637 75.845,405.455 64.775,405.455 64.775,375.637" fill="#dce3d6" stroke="#b7c2b0" stroke-width="1.5"/><polygon points="410.796,326.083 424.197,356.772 407.940,363.871 394.539,333.182" fill="#dce3d6" stroke="#b7c2b0" stroke-width="1.5"/><polygon points="389.078,343.558 401.747,356.236 389.070,368.905 376.401,356.227" fill="#dce3d6" stroke="#b7c2b0" stroke-width="1.5"/><circle cx="109.49162874535824" cy="175.2785297338627" r="5.483176316264939" fill="#45594a"/><circle cx="290.8454430962532" cy="323.37323317084775" r="7.920489269412281" fill="#45594a"/><circle cx="160.94910236960874" cy="196.97752753647458" r="5.3868438207742315" fill="#45594a"/><circle cx="322.8099146449632" cy="278.7557661464819" r="8.177730702264709" fill="#45594a"/><path d="M357.887,99.076 L357.887,165.570" stroke="#65745f" stroke-width="2" fill="none"/><path d="M357.887,200.911 L357.887,420.924" stroke="#65745f" stroke-width="2" fill="none"/><path d="M63.599,237.884 L254.424,237.884" stroke="#65745f" stroke-width="2" fill="none"/><path d="M280.338,237.884 L357.887,237.884" stroke="#65745f" stroke-width="2" fill="none"/><path d="M231.388,237.884 L231.388,365.409" stroke="#65745f" stroke-width="2" fill="none"/><path d="M231.388,391.794 L231.388,420.924" stroke="#65745f" stroke-width="2" fill="none"/><path d="M224.981,115.646 L224.981,140.714" stroke="#65745f" stroke-width="2" fill="none"/><path d="M224.981,165.894 L224.981,237.884" stroke="#65745f" stroke-width="2" fill="none"/><polygon points="224.981,148.304 219.981,157.304 229.981,157.304" fill="#bc6e35" stroke="#bc6e35" stroke-width="1.5"/><path d="M58.334,330.367 L170.283,330.367" stroke="#65745f" stroke-width="2" fill="none"/><path d="M204.031,330.367 L231.388,330.367" stroke="#65745f" stroke-width="2" fill="none"/><polygon points="187.157,325.367 182.157,334.367 192.157,334.367" fill="#bc6e35" stroke="#bc6e35" stroke-width="1.5"/><path d="M357.887,276.769 L368.279,276.769" stroke="#65745f" stroke-width="2" fill="none"/><path d="M406.124,276.769 L437.608,276.769" stroke="#65745f" stroke-width="2" fill="none"/><path d="M277.977,99.076 L390.204,99.076" stroke="#2797a5" stroke-width="4" fill="none"/><path d="M428.434,133.230 L435.854,249.321" stroke="#2797a5" stroke-width="4" fill="none"/><path d="M437.367,272.994 L446.557,416.785" stroke="#2797a5" stroke-width="4" fill="none"/><path d="M72.654,126.231 L96.949,101.936" stroke="#2797a5" stroke-width="4" fill="none"/><path d="M160.878,158.917 L146.648,180.831" stroke="#147d70" stroke-width="2" fill="none"/><path d="M146.648,180.831 L147.527,173.887" stroke="#147d70" stroke-width="2" fill="none"/><path d="M146.648,180.831 L152.635,177.203" stroke="#147d70" stroke-width="2" fill="none"/><circle cx="160.87784300593268" cy="158.91688340616767" r="4" fill="#147d70"/><text x="166.878" y="151.917" font-size="13">C0</text><path d="M114.738,123.353 L115.253,149.658" stroke="#c56a33" stroke-width="2" fill="none"/><path d="M115.253,149.658 L112.085,143.415" stroke="#c56a33" stroke-width="2" fill="none"/><path d="M115.253,149.658 L118.174,143.296" stroke="#c56a33" stroke-width="2" fill="none"/><circle cx="114.73787631775514" cy="123.35289340127042" r="4" fill="#c56a33"/><text x="120.738" y="116.353" font-size="13">C1</text><path d="M187.693,138.865 L170.544,158.867" stroke="#626aca" stroke-width="2" fill="none"/><path d="M170.544,158.867 L172.335,152.100" stroke="#626aca" stroke-width="2" fill="none"/><path d="M170.544,158.867 L176.958,156.063" stroke="#626aca" stroke-width="2" fill="none"/><circle cx="187.69309973923035" cy="138.86507658601158" r="4" fill="#626aca"/><text x="193.693" y="131.865" font-size="13">C2</text><path d="M158.623,122.479 L150.547,147.566" stroke="#aa4984" stroke-width="2" fill="none"/><path d="M150.547,147.566 L149.580,140.633" stroke="#aa4984" stroke-width="2" fill="none"/><path d="M150.547,147.566 L155.377,142.499" stroke="#aa4984" stroke-width="2" fill="none"/><circle cx="158.62308111556246" cy="122.47882881133313" r="4" fill="#aa4984"/><text x="164.623" y="115.479" font-size="13">C3</text><text x="40.000" y="490.000" font-size="13">X/Z metres · 14.9 × 12.2 m bounding envelope</text><path d="M62.340,260.000 L436.536,260.000" stroke="#909a8b" stroke-width="1" stroke-dasharray="5 4" fill="none"/><path d="M562.340,302.312 L936.536,302.312" stroke="#20382e" stroke-width="2.3" fill="none"/><path d="M562.340,420.000 L562.340,302.312" stroke="#20382e" stroke-width="1.5" fill="none"/><path d="M936.536,420.000 L936.536,302.312" stroke="#20382e" stroke-width="1.5" fill="none"/><path d="M562.340,420.000 L936.536,420.000" stroke="#65745f" stroke-width="3" fill="none"/><path d="M562.340,420.000 L562.340,420.000" stroke="#8d9a85" stroke-width="1" fill="none"/><path d="M936.536,420.000 L936.536,420.000" stroke="#8d9a85" stroke-width="1" fill="none"/><text x="530.000" y="61.000" font-size="15">Envelope section · roof pitch 0.0°</text><text x="530.000" y="490.000" font-size="13">Base floor 0 m · furnishings omitted in section</text></g></svg>
