<svg xmlns="http://www.w3.org/2000/svg" xmlns:xlink="http://www.w3.org/1999/xlink" width="1000" height="510" viewBox="0 0 1000 510"><rect width="100%" height="100%" fill="#f7f8f3"/><g font-family="DejaVu Sans" fill="#20382e"><text x="24.000" y="29.000" font-size="18">Seed 26 · 35.8 m² · plan and metric envelope section</text><polygon points="120.580,116.263 242.491,116.263 242.491,158.436 296.559,158.436 296.559,116.263 389.814,116.263 410.765,137.214 434.333,403.737 65.667,403.737 99.629,137.214" fill="#eff3e9" stroke="#20382e" stroke-width="1.5"/><polygon points="154.286,284.837 227.316,258.689 243.744,304.572 170.714,330.720" fill="#dce3d6" stroke="#b7c2b0" stroke-width="1.5"/><polygon points="198.254,329.834 232.215,321.761 240.288,355.723 206.327,363.796" fill="#dce3d6" stroke="#b7c2b0" stroke-width="1.5"/><polygon points="331.613,230.082 276.265,284.429 242.141,249.676 297.489,195.329" fill="#dce3d6" stroke="#b7c2b0" stroke-width="1.5"/><polygon points="269.963,215.563 237.498,228.392 224.669,195.927 257.134,183.098" fill="#dce3d6" stroke="#b7c2b0" stroke-width="1.5"/><polygon points="323.451,164.564 383.345,159.254 385.940,188.511 326.045,193.822" fill="#dce3d6" stroke="#b7c2b0" stroke-width="1.5"/><polygon points="344.016,198.693 378.446,204.451 372.688,238.880 338.258,233.122" fill="#dce3d6" stroke="#b7c2b0" stroke-width="1.5"/><polygon points="131.200,171.988 185.357,149.108 198.093,179.255 143.936,202.135" fill="#dce3d6" stroke="#b7c2b0" stroke-width="1.5"/><polygon points="160.781,223.526 175.804,192.016 207.313,207.039 192.290,238.549" fill="#dce3d6" stroke="#b7c2b0" stroke-width="1.5"/><polygon points="184.907,379.096 137.817,379.096 137.817,361.642 184.907,361.642" fill="#dce3d6" stroke="#b7c2b0" stroke-width="1.5"/><path d="M134.981,116.263 L228.089,116.263" stroke="#2797a5" stroke-width="4" fill="none"/><path d="M312.135,116.263 L374.238,116.263" stroke="#2797a5" stroke-width="4" fill="none"/><path d="M411.568,146.302 L416.977,207.465" stroke="#2797a5" stroke-width="4" fill="none"/><path d="M418.740,227.406 L425.072,299.015" stroke="#2797a5" stroke-width="4" fill="none"/><path d="M426.836,318.956 L433.529,394.649" stroke="#2797a5" stroke-width="4" fill="none"/><path d="M343.155,344.420 L293.071,343.321" stroke="#147d70" stroke-width="2" fill="none"/><path d="M293.071,343.321 L299.439,340.415" stroke="#147d70" stroke-width="2" fill="none"/><path d="M293.071,343.321 L299.305,346.503" stroke="#147d70" stroke-width="2" fill="none"/><circle cx="343.1545531355193" cy="344.41970261390844" r="4" fill="#147d70"/><text x="349.155" y="337.420" font-size="13">C0</text><path d="M339.018,275.652 L300.128,307.911" stroke="#c56a33" stroke-width="2" fill="none"/><path d="M300.128,307.911 L303.036,301.544" stroke="#c56a33" stroke-width="2" fill="none"/><path d="M300.128,307.911 L306.923,306.231" stroke="#c56a33" stroke-width="2" fill="none"/><circle cx="339.0182575004375" cy="275.6516412453384" r="4" fill="#c56a33"/><text x="345.018" y="268.652" font-size="13">C1</text><path d="M303.624,258.810 L269.724,294.206" stroke="#626aca" stroke-width="2" fill="none"/><path d="M269.724,294.206 L271.885,287.548" stroke="#626aca" stroke-width="2" fill="none"/><path d="M269.724,294.206 L276.283,291.760" stroke="#626aca" stroke-width="2" fill="none"/><circle cx="303.623841720461" cy="258.80955414626646" r="4" fill="#626aca"/><text x="309.624" y="251.810" font-size="13">C2</text><path d="M351.341,235.544 L316.463,269.800" stroke="#aa4984" stroke-width="2" fill="none"/><path d="M316.463,269.800 L318.827,263.211" stroke="#aa4984" stroke-width="2" fill="none"/><path d="M316.463,269.800 L323.094,267.555" stroke="#aa4984" stroke-width="2" fill="none"/><circle cx="351.3409626555949" cy="235.54374220011204" r="4" fill="#aa4984"/><text x="357.341" y="228.544" font-size="13">C3</text><text x="40.000" y="490.000" font-size="13">X/Z metres · 7.2 × 5.6 m bounding envelope</text><path d="M83.983,260.000 L421.622,260.000" stroke="#909a8b" stroke-width="1" stroke-dasharray="5 4" fill="none"/><path d="M583.983,241.247 L921.622,241.247" stroke="#20382e" stroke-width="2.3" fill="none"/><path d="M583.983,420.000 L583.983,241.247" stroke="#20382e" stroke-width="1.5" fill="none"/><path d="M921.622,420.000 L921.622,241.247" stroke="#20382e" stroke-width="1.5" fill="none"/><path d="M583.983,420.000 L921.622,420.000" stroke="#65745f" stroke-width="3" fill="none"/><path d="M583.983,420.000 L583.983,420.000" stroke="#8d9a85" stroke-width="1" fill="none"/><path d="M921.622,420.000 L921.622,420.000" stroke="#8d9a85" stroke-width="1" fill="none"/><text x="530.000" y="61.000" font-size="15">Envelope section · roof pitch 0.0°</text><text x="530.000" y="490.000" font-size="13">Base floor 0 m · furnishings omitted in section</text></g></svg>
