<svg xmlns="http://www.w3.org/2000/svg" xmlns:xlink="http://www.w3.org/1999/xlink" width="1000" height="510" viewBox="0 0 1000 510"><rect width="100%" height="100%" fill="#f7f8f3"/><g font-family="DejaVu Sans" fill="#20382e"><text x="24.000" y="29.000" font-size="18">Seed 4 · 49.2 m² · plan and metric envelope section</text><polygon points="147.425,94.075 233.825,94.075 233.825,116.294 262.122,116.294 262.122,94.075 345.278,94.075 380.373,129.170 399.196,425.925 100.804,425.925 112.330,129.170" fill="#eff3e9" stroke="#20382e" stroke-width="1.5"/><polygon points="183.601,206.276 135.606,218.226 129.343,193.070 177.338,181.121" fill="#dce3d6" stroke="#b7c2b0" stroke-width="1.5"/><polygon points="168.280,189.527 139.044,192.024 136.548,162.788 165.783,160.292" fill="#dce3d6" stroke="#b7c2b0" stroke-width="1.5"/><polygon points="358.490,297.172 300.776,281.023 308.741,252.559 366.455,268.707" fill="#dce3d6" stroke="#b7c2b0" stroke-width="1.5"/><polygon points="361.132,264.089 323.870,253.662 334.803,214.589 372.065,225.015" fill="#dce3d6" stroke="#b7c2b0" stroke-width="1.5"/><polygon points="317.013,405.633 267.910,407.034 267.063,377.369 316.166,375.968" fill="#dce3d6" stroke="#b7c2b0" stroke-width="1.5"/><polygon points="304.339,364.958 275.580,370.778 269.760,342.019 298.519,336.199" fill="#dce3d6" stroke="#b7c2b0" stroke-width="1.5"/><polygon points="287.894,280.010 287.894,310.723 273.223,310.723 273.223,280.010" fill="#dce3d6" stroke="#b7c2b0" stroke-width="1.5"/><polygon points="287.894,196.284 287.894,238.330 273.223,238.330 273.223,196.284" fill="#dce3d6" stroke="#b7c2b0" stroke-width="1.5"/><polygon points="202.083,405.661 122.389,382.775 132.009,349.277 211.703,372.163" fill="#dce3d6" stroke="#b7c2b0" stroke-width="1.5"/><circle cx="331.8248907561854" cy="181.18463292426765" r="6.41134461713761" fill="#45594a"/><circle cx="319.336520741771" cy="310.67746672152015" r="8.522420276198476" fill="#45594a"/><path d="M252.511,116.294 L252.511,127.513" stroke="#65745f" stroke-width="2" fill="none"/><path d="M252.511,182.514 L252.511,425.925" stroke="#65745f" stroke-width="2" fill="none"/><polygon points="252.511,150.013 247.511,159.013 257.511,159.013" fill="#bc6e35" stroke="#bc6e35" stroke-width="1.5"/><path d="M106.267,285.273 L162.318,285.273" stroke="#65745f" stroke-width="2" fill="none"/><path d="M224.298,285.273 L252.511,285.273" stroke="#65745f" stroke-width="2" fill="none"/><path d="M155.084,94.075 L226.165,94.075" stroke="#2797a5" stroke-width="4" fill="none"/><path d="M269.247,94.075 L338.154,94.075" stroke="#2797a5" stroke-width="4" fill="none"/><path d="M380.785,135.656 L398.785,419.439" stroke="#2797a5" stroke-width="4" fill="none"/><path d="M101.225,415.071 L104.243,337.377" stroke="#2797a5" stroke-width="4" fill="none"/><path d="M104.668,326.433 L106.569,277.493" stroke="#2797a5" stroke-width="4" fill="none"/><path d="M106.994,266.549 L109.502,201.979" stroke="#2797a5" stroke-width="4" fill="none"/><path d="M109.927,191.035 L111.908,140.024" stroke="#2797a5" stroke-width="4" fill="none"/><path d="M303.999,213.006 L300.692,252.856" stroke="#147d70" stroke-width="2" fill="none"/><path d="M300.692,252.856 L298.179,246.322" stroke="#147d70" stroke-width="2" fill="none"/><path d="M300.692,252.856 L304.248,246.826" stroke="#147d70" stroke-width="2" fill="none"/><circle cx="303.998581357116" cy="213.0061221994416" r="4" fill="#147d70"/><text x="309.999" y="206.006" font-size="13">C0</text><path d="M275.920,286.762 L286.392,314.398" stroke="#c56a33" stroke-width="2" fill="none"/><path d="M286.392,314.398 L281.311,309.583" stroke="#c56a33" stroke-width="2" fill="none"/><path d="M286.392,314.398 L287.005,307.425" stroke="#c56a33" stroke-width="2" fill="none"/><circle cx="275.91958108101954" cy="286.7623838187965" r="4" fill="#c56a33"/><text x="281.920" y="279.762" font-size="13">C1</text><path d="M363.836,277.495 L334.620,302.946" stroke="#626aca" stroke-width="2" fill="none"/><path d="M334.620,302.946 L337.372,296.510" stroke="#626aca" stroke-width="2" fill="none"/><path d="M334.620,302.946 L341.372,301.102" stroke="#626aca" stroke-width="2" fill="none"/><circle cx="363.8356082024998" cy="277.4951621399821" r="4" fill="#626aca"/><text x="369.836" y="270.495" font-size="13">C2</text><path d="M369.461,397.989 L337.748,375.218" stroke="#aa4984" stroke-width="2" fill="none"/><path d="M337.748,375.218 L344.644,376.421" stroke="#aa4984" stroke-width="2" fill="none"/><path d="M337.748,375.218 L341.092,381.368" stroke="#aa4984" stroke-width="2" fill="none"/><circle cx="369.46072640902315" cy="397.9893674621137" r="4" fill="#aa4984"/><text x="375.461" y="390.989" font-size="13">C3</text><text x="40.000" y="490.000" font-size="13">X/Z metres · 6.9 × 7.7 m bounding envelope</text><path d="M107.248,260.000 L388.672,260.000" stroke="#909a8b" stroke-width="1" stroke-dasharray="5 4" fill="none"/><path d="M607.248,240.744 L888.672,279.495" stroke="#20382e" stroke-width="2.3" fill="none"/><path d="M607.248,420.000 L607.248,240.744" stroke="#20382e" stroke-width="1.5" fill="none"/><path d="M888.672,420.000 L888.672,279.495" stroke="#20382e" stroke-width="1.5" fill="none"/><path d="M607.248,420.000 L888.672,420.000" stroke="#65745f" stroke-width="3" fill="none"/><path d="M607.248,420.000 L607.248,420.000" stroke="#8d9a85" stroke-width="1" fill="none"/><path d="M888.672,420.000 L888.672,420.000" stroke="#8d9a85" stroke-width="1" fill="none"/><text x="530.000" y="61.000" font-size="15">Envelope section · roof pitch 8.0°</text><text x="530.000" y="490.000" font-size="13">Base floor 0 m · furnishings omitted in section</text></g></svg>
