<svg xmlns="http://www.w3.org/2000/svg" xmlns:xlink="http://www.w3.org/1999/xlink" width="1000" height="510" viewBox="0 0 1000 510"><rect width="100%" height="100%" fill="#f7f8f3"/><g font-family="DejaVu Sans" fill="#20382e"><text x="24.000" y="29.000" font-size="18">Seed 7 · 137.2 m² · plan and metric envelope section</text><polygon points="168.393,82.773 327.787,82.773 333.673,437.227 166.327,437.227" fill="#eff3e9" stroke="#20382e" stroke-width="1.5"/><polygon points="254.716,178.665 216.659,160.798 222.891,147.523 260.948,165.389" fill="#dce3d6" stroke="#b7c2b0" stroke-width="1.5"/><polygon points="245.771,156.339 237.046,145.427 247.958,136.703 256.682,147.615" fill="#dce3d6" stroke="#b7c2b0" stroke-width="1.5"/><polygon points="286.645,221.536 245.981,232.212 242.411,218.616 283.076,207.941" fill="#dce3d6" stroke="#b7c2b0" stroke-width="1.5"/><polygon points="270.003,206.349 256.923,211.258 252.014,198.179 265.093,193.269" fill="#dce3d6" stroke="#b7c2b0" stroke-width="1.5"/><polygon points="276.615,329.663 235.950,340.338 232.392,326.785 273.056,316.110" fill="#dce3d6" stroke="#b7c2b0" stroke-width="1.5"/><polygon points="259.675,314.923 246.402,319.283 242.042,306.010 255.315,301.650" fill="#dce3d6" stroke="#b7c2b0" stroke-width="1.5"/><polygon points="211.046,376.407 240.253,374.204 241.181,386.505 211.974,388.708" fill="#dce3d6" stroke="#b7c2b0" stroke-width="1.5"/><polygon points="216.326,396.422 228.279,389.189 235.512,401.141 223.560,408.374" fill="#dce3d6" stroke="#b7c2b0" stroke-width="1.5"/><polygon points="252.016,377.474 277.967,378.275 277.547,391.874 251.596,391.073" fill="#dce3d6" stroke="#b7c2b0" stroke-width="1.5"/><polygon points="260.282,394.429 273.999,397.077 271.350,410.795 257.633,408.146" fill="#dce3d6" stroke="#b7c2b0" stroke-width="1.5"/><polygon points="195.903,343.887 219.162,356.644 212.022,369.662 188.763,356.906" fill="#dce3d6" stroke="#b7c2b0" stroke-width="1.5"/><polygon points="192.430,362.617 203.680,370.900 195.397,382.150 184.147,373.867" fill="#dce3d6" stroke="#b7c2b0" stroke-width="1.5"/><polygon points="284.220,191.781 303.732,185.590 307.449,197.305 287.937,203.496" fill="#dce3d6" stroke="#b7c2b0" stroke-width="1.5"/><polygon points="288.821,206.151 304.138,199.861 310.982,216.527 295.665,222.817" fill="#dce3d6" stroke="#b7c2b0" stroke-width="1.5"/><polygon points="182.021,402.940 204.918,393.054 209.997,404.818 187.100,414.704" fill="#dce3d6" stroke="#b7c2b0" stroke-width="1.5"/><polygon points="195.198,416.039 207.757,409.920 213.876,422.479 201.317,428.599" fill="#dce3d6" stroke="#b7c2b0" stroke-width="1.5"/><polygon points="273.310,344.353 298.579,341.072 300.099,352.775 274.830,356.056" fill="#dce3d6" stroke="#b7c2b0" stroke-width="1.5"/><polygon points="279.357,359.477 293.244,357.947 294.773,371.834 280.886,373.363" fill="#dce3d6" stroke="#b7c2b0" stroke-width="1.5"/><polygon points="282.819,238.287 301.069,246.618 295.606,258.586 277.356,250.255" fill="#dce3d6" stroke="#b7c2b0" stroke-width="1.5"/><polygon points="280.537,255.670 292.775,262.408 286.037,274.646 273.799,267.908" fill="#dce3d6" stroke="#b7c2b0" stroke-width="1.5"/><polygon points="235.878,268.141 256.450,269.709 255.556,281.442 234.984,279.874" fill="#dce3d6" stroke="#b7c2b0" stroke-width="1.5"/><polygon points="234.974,281.268 252.099,283.275 249.920,301.871 232.795,299.864" fill="#dce3d6" stroke="#b7c2b0" stroke-width="1.5"/><polygon points="228.385,94.009 251.726,112.062 242.386,124.138 219.045,106.085" fill="#dce3d6" stroke="#b7c2b0" stroke-width="1.5"/><polygon points="216.673,117.303 230.627,116.618 231.312,130.572 217.358,131.256" fill="#dce3d6" stroke="#b7c2b0" stroke-width="1.5"/><polygon points="260.955,427.366 236.673,427.366 236.673,420.381 260.955,420.381" fill="#dce3d6" stroke="#b7c2b0" stroke-width="1.5"/><polygon points="183.174,291.656 183.174,315.284 176.188,315.284 176.188,291.656" fill="#dce3d6" stroke="#b7c2b0" stroke-width="1.5"/><polygon points="272.565,145.440 249.555,145.440 249.555,132.702 272.565,132.702" fill="#dce3d6" stroke="#b7c2b0" stroke-width="1.5"/><polygon points="270.485,125.222 257.677,130.802 252.097,117.995 264.905,112.414" fill="#dce3d6" stroke="#b7c2b0" stroke-width="1.5"/><polygon points="236.599,127.779 236.599,150.790 223.861,150.790 223.861,127.779" fill="#dce3d6" stroke="#b7c2b0" stroke-width="1.5"/><polygon points="221.584,136.589 217.221,149.861 203.949,145.499 208.312,132.227" fill="#dce3d6" stroke="#b7c2b0" stroke-width="1.5"/><polygon points="317.135,392.337 324.736,392.337 324.736,399.938 317.135,399.938" fill="#dce3d6" stroke="#b7c2b0" stroke-width="1.5"/><polygon points="175.983,191.473 185.434,191.473 185.434,200.923 175.983,200.923" fill="#dce3d6" stroke="#b7c2b0" stroke-width="1.5"/><polygon points="322.245,334.438 323.091,347.765 309.764,348.611 308.918,335.284" fill="#dce3d6" stroke="#b7c2b0" stroke-width="1.5"/><circle cx="289.4207192775515" cy="285.722163375715" r="5.261748474182316" fill="#45594a"/><circle cx="248.53792823542395" cy="242.66257376988622" r="3.4696015005306373" fill="#45594a"/><path d="M174.575,82.773 L321.605,82.773" stroke="#2797a5" stroke-width="4" fill="none"/><path d="M174.575,82.773 L321.605,82.773" stroke="#2797a5" stroke-width="4" fill="none"/><path d="M327.869,87.694 L328.985,154.889" stroke="#2797a5" stroke-width="4" fill="none"/><path d="M329.273,172.223 L330.076,220.568" stroke="#2797a5" stroke-width="4" fill="none"/><path d="M330.363,237.902 L331.261,291.971" stroke="#2797a5" stroke-width="4" fill="none"/><path d="M331.549,309.305 L332.415,361.449" stroke="#2797a5" stroke-width="4" fill="none"/><path d="M332.703,378.783 L333.592,432.306" stroke="#2797a5" stroke-width="4" fill="none"/><path d="M166.350,433.181 L166.593,391.498" stroke="#2797a5" stroke-width="4" fill="none"/><path d="M166.350,433.181 L166.593,391.498" stroke="#2797a5" stroke-width="4" fill="none"/><path d="M166.630,385.235 L166.814,353.600" stroke="#2797a5" stroke-width="4" fill="none"/><path d="M166.630,385.235 L166.814,353.600" stroke="#2797a5" stroke-width="4" fill="none"/><path d="M166.851,347.336 L167.119,301.239" stroke="#2797a5" stroke-width="4" fill="none"/><path d="M166.851,347.336 L167.119,301.239" stroke="#2797a5" stroke-width="4" fill="none"/><path d="M167.156,294.975 L167.344,262.673" stroke="#2797a5" stroke-width="4" fill="none"/><path d="M167.156,294.975 L167.344,262.673" stroke="#2797a5" stroke-width="4" fill="none"/><path d="M167.381,256.409 L167.611,216.855" stroke="#2797a5" stroke-width="4" fill="none"/><path d="M167.381,256.409 L167.611,216.855" stroke="#2797a5" stroke-width="4" fill="none"/><path d="M167.648,210.591 L167.893,168.455" stroke="#2797a5" stroke-width="4" fill="none"/><path d="M167.648,210.591 L167.893,168.455" stroke="#2797a5" stroke-width="4" fill="none"/><path d="M167.930,162.191 L168.116,130.286" stroke="#2797a5" stroke-width="4" fill="none"/><path d="M167.930,162.191 L168.116,130.286" stroke="#2797a5" stroke-width="4" fill="none"/><path d="M168.152,124.022 L168.369,86.819" stroke="#2797a5" stroke-width="4" fill="none"/><path d="M168.152,124.022 L168.369,86.819" stroke="#2797a5" stroke-width="4" fill="none"/><polygon points="189.041,105.487 291.766,105.487 291.766,154.347 189.041,154.347" fill="#c8aed8" stroke="#899781" stroke-width="1.5"/><polygon points="192.123,154.347 214.311,154.347 214.311,259.652 192.123,259.652" fill="#e4d7ec" stroke="#899781" stroke-width="1.5"/><path d="M192.123,154.347 L214.311,154.347" stroke="#79608f" stroke-width="0.8" fill="none"/><path d="M192.123,160.541 L214.311,160.541" stroke="#79608f" stroke-width="0.8" fill="none"/><path d="M192.123,166.736 L214.311,166.736" stroke="#79608f" stroke-width="0.8" fill="none"/><path d="M192.123,172.930 L214.311,172.930" stroke="#79608f" stroke-width="0.8" fill="none"/><path d="M192.123,179.125 L214.311,179.125" stroke="#79608f" stroke-width="0.8" fill="none"/><path d="M192.123,185.319 L214.311,185.319" stroke="#79608f" stroke-width="0.8" fill="none"/><path d="M192.123,191.514 L214.311,191.514" stroke="#79608f" stroke-width="0.8" fill="none"/><path d="M192.123,197.708 L214.311,197.708" stroke="#79608f" stroke-width="0.8" fill="none"/><path d="M192.123,203.902 L214.311,203.902" stroke="#79608f" stroke-width="0.8" fill="none"/><path d="M192.123,210.097 L214.311,210.097" stroke="#79608f" stroke-width="0.8" fill="none"/><path d="M192.123,216.291 L214.311,216.291" stroke="#79608f" stroke-width="0.8" fill="none"/><path d="M192.123,222.486 L214.311,222.486" stroke="#79608f" stroke-width="0.8" fill="none"/><path d="M192.123,228.680 L214.311,228.680" stroke="#79608f" stroke-width="0.8" fill="none"/><path d="M192.123,234.875 L214.311,234.875" stroke="#79608f" stroke-width="0.8" fill="none"/><path d="M192.123,241.069 L214.311,241.069" stroke="#79608f" stroke-width="0.8" fill="none"/><path d="M192.123,247.264 L214.311,247.264" stroke="#79608f" stroke-width="0.8" fill="none"/><path d="M192.123,253.458 L214.311,253.458" stroke="#79608f" stroke-width="0.8" fill="none"/><path d="M192.123,259.652 L214.311,259.652" stroke="#79608f" stroke-width="0.8" fill="none"/><path d="M279.953,184.074 L268.839,201.247" stroke="#147d70" stroke-width="2" fill="none"/><path d="M268.839,201.247 L269.708,194.301" stroke="#147d70" stroke-width="2" fill="none"/><path d="M268.839,201.247 L274.820,197.610" stroke="#147d70" stroke-width="2" fill="none"/><circle cx="279.95311962655165" cy="184.07445805336323" r="4" fill="#147d70"/><text x="285.953" y="177.074" font-size="13">C0</text><path d="M234.516,153.858 L238.657,173.670" stroke="#c56a33" stroke-width="2" fill="none"/><path d="M238.657,173.670 L234.387,168.123" stroke="#c56a33" stroke-width="2" fill="none"/><path d="M238.657,173.670 L240.348,166.877" stroke="#c56a33" stroke-width="2" fill="none"/><circle cx="234.51599954616813" cy="153.85807374543387" r="4" fill="#c56a33"/><text x="240.516" y="146.858" font-size="13">C1</text><path d="M278.404,158.172 L269.229,176.525" stroke="#626aca" stroke-width="2" fill="none"/><path d="M269.229,176.525 L269.324,169.526" stroke="#626aca" stroke-width="2" fill="none"/><path d="M269.229,176.525 L274.771,172.249" stroke="#626aca" stroke-width="2" fill="none"/><circle cx="278.4039525054958" cy="158.17163513128992" r="4" fill="#626aca"/><text x="284.404" y="151.172" font-size="13">C2</text><path d="M262.210,145.670 L259.017,165.274" stroke="#aa4984" stroke-width="2" fill="none"/><path d="M259.017,165.274 L257.025,158.563" stroke="#aa4984" stroke-width="2" fill="none"/><path d="M259.017,165.274 L263.035,159.542" stroke="#aa4984" stroke-width="2" fill="none"/><circle cx="262.20966251099964" cy="145.67002587249257" r="4" fill="#aa4984"/><text x="268.210" y="138.670" font-size="13">C3</text><text x="40.000" y="490.000" font-size="13">X/Z metres · 8.1 × 17.3 m bounding envelope</text><path d="M203.217,82.773 L203.217,437.227" stroke="#909a8b" stroke-width="1" stroke-dasharray="5 4" fill="none"/><path d="M572.773,282.549 L927.227,287.431" stroke="#20382e" stroke-width="2.3" fill="none"/><path d="M572.773,420.000 L572.773,282.549" stroke="#20382e" stroke-width="1.5" fill="none"/><path d="M927.227,420.000 L927.227,287.431" stroke="#20382e" stroke-width="1.5" fill="none"/><path d="M572.773,420.000 L927.227,420.000" stroke="#65745f" stroke-width="3" fill="none"/><path d="M572.773,420.000 L572.773,420.000" stroke="#8d9a85" stroke-width="1" fill="none"/><path d="M927.227,420.000 L927.227,420.000" stroke="#8d9a85" stroke-width="1" fill="none"/><path d="M595.487,362.388 L644.347,362.388" stroke="#9f80b4" stroke-width="4.109002056396317" fill="none"/><path d="M644.347,362.388 L650.541,362.388" stroke="#79608f" stroke-width="1.5" fill="none"/><path d="M650.541,362.388 L650.541,365.777" stroke="#79608f" stroke-width="1.5" fill="none"/><path d="M650.541,365.777 L656.736,365.777" stroke="#79608f" stroke-width="1.5" fill="none"/><path d="M656.736,365.777 L656.736,369.166" stroke="#79608f" stroke-width="1.5" fill="none"/><path d="M656.736,369.166 L662.930,369.166" stroke="#79608f" stroke-width="1.5" fill="none"/><path d="M662.930,369.166 L662.930,372.555" stroke="#79608f" stroke-width="1.5" fill="none"/><path d="M662.930,372.555 L669.125,372.555" stroke="#79608f" stroke-width="1.5" fill="none"/><path d="M669.125,372.555 L669.125,375.944" stroke="#79608f" stroke-width="1.5" fill="none"/><path d="M669.125,375.944 L675.319,375.944" stroke="#79608f" stroke-width="1.5" fill="none"/><path d="M675.319,375.944 L675.319,379.333" stroke="#79608f" stroke-width="1.5" fill="none"/><path d="M675.319,379.333 L681.514,379.333" stroke="#79608f" stroke-width="1.5" fill="none"/><path d="M681.514,379.333 L681.514,382.722" stroke="#79608f" stroke-width="1.5" fill="none"/><path d="M681.514,382.722 L687.708,382.722" stroke="#79608f" stroke-width="1.5" fill="none"/><path d="M687.708,382.722 L687.708,386.111" stroke="#79608f" stroke-width="1.5" fill="none"/><path d="M687.708,386.111 L693.902,386.111" stroke="#79608f" stroke-width="1.5" fill="none"/><path d="M693.902,386.111 L693.902,389.499" stroke="#79608f" stroke-width="1.5" fill="none"/><path d="M693.902,389.499 L700.097,389.499" stroke="#79608f" stroke-width="1.5" fill="none"/><path d="M700.097,389.499 L700.097,392.888" stroke="#79608f" stroke-width="1.5" fill="none"/><path d="M700.097,392.888 L706.291,392.888" stroke="#79608f" stroke-width="1.5" fill="none"/><path d="M706.291,392.888 L706.291,396.277" stroke="#79608f" stroke-width="1.5" fill="none"/><path d="M706.291,396.277 L712.486,396.277" stroke="#79608f" stroke-width="1.5" fill="none"/><path d="M712.486,396.277 L712.486,399.666" stroke="#79608f" stroke-width="1.5" fill="none"/><path d="M712.486,399.666 L718.680,399.666" stroke="#79608f" stroke-width="1.5" fill="none"/><path d="M718.680,399.666 L718.680,403.055" stroke="#79608f" stroke-width="1.5" fill="none"/><path d="M718.680,403.055 L724.875,403.055" stroke="#79608f" stroke-width="1.5" fill="none"/><path d="M724.875,403.055 L724.875,406.444" stroke="#79608f" stroke-width="1.5" fill="none"/><path d="M724.875,406.444 L731.069,406.444" stroke="#79608f" stroke-width="1.5" fill="none"/><path d="M731.069,406.444 L731.069,409.833" stroke="#79608f" stroke-width="1.5" fill="none"/><path d="M731.069,409.833 L737.264,409.833" stroke="#79608f" stroke-width="1.5" fill="none"/><path d="M737.264,409.833 L737.264,413.222" stroke="#79608f" stroke-width="1.5" fill="none"/><path d="M737.264,413.222 L743.458,413.222" stroke="#79608f" stroke-width="1.5" fill="none"/><path d="M743.458,413.222 L743.458,416.611" stroke="#79608f" stroke-width="1.5" fill="none"/><path d="M743.458,416.611 L749.652,416.611" stroke="#79608f" stroke-width="1.5" fill="none"/><path d="M749.652,416.611 L749.652,420.000" stroke="#79608f" stroke-width="1.5" fill="none"/><text x="530.000" y="61.000" font-size="15">Envelope section · roof pitch 3.1°</text><text x="530.000" y="490.000" font-size="13">Base floor 0 m · furnishings omitted in section</text></g></svg>
