<?xml version="1.0" encoding="utf-8" standalone="no"?>
<!DOCTYPE svg PUBLIC "-//W3C//DTD SVG 1.1//EN"
  "http://www.w3.org/Graphics/SVG/1.1/DTD/svg11.dtd">
<svg xmlns:xlink="http://www.w3.org/1999/xlink" width="309.6pt" height="230.4pt" viewBox="0 0 309.6 230.4" xmlns="http://www.w3.org/2000/svg" version="1.1">
 <metadata>
  <rdf:RDF xmlns:dc="http://purl.org/dc/elements/1.1/" xmlns:cc="http://creativecommons.org/ns#" xmlns:rdf="http://www.w3.org/1999/02/22-rdf-syntax-ns#">
   <cc:Work>
    <dc:type rdf:resource="http://purl.org/dc/dcmitype/StillImage"/>
    <dc:date>2026-09-28T00:12:06.425545</dc:date>
    <dc:format>image/svg+xml</dc:format>
    <dc:creator>
     <cc:Agent>
      <dc:title>Matplotlib v3.11.2, https://matplotlib.org/</dc:title>
     </cc:Agent>
    </dc:creator>
   </cc:Work>
  </rdf:RDF>
 </metadata>
 <defs>
  <style type="text/css">*{stroke-linejoin: round; stroke-linecap: butt}</style>
 </defs>
 <g id="figure_1">
  <g id="patch_1">
   <path d="M 0 230.4
L 309.6 230.4
L 309.6 0
L 0 0
z
" style="fill: #ffffff"/>
  </g>
  <g id="axes_1">
   <g id="patch_2">
    <path d="M 39.58774 199.89976
L 306.59976 199.89976
L 306.59976 25.358521
L 39.58774 25.358521
z
" style="fill: #ffffff"/>
   </g>
   <g id="matplotlib.axis_1">
    <g id="xtick_1">
     <g id="line2d_1"/>
     <g id="text_1">
      <text style="font-size: 10px; font-family: 'DejaVu Sans'; text-anchor: middle; fill: #58655f" x="63.757902" y="210.997416" transform="rotate(-0 63.757902 210.997416)">50</text>
     </g>
    </g>
    <g id="xtick_2">
     <g id="line2d_2"/>
     <g id="text_2">
      <text style="font-size: 10px; font-family: 'DejaVu Sans'; text-anchor: middle; fill: #58655f" x="117.015427" y="210.997416" transform="rotate(-0 117.015427 210.997416)">100</text>
     </g>
    </g>
    <g id="xtick_3">
     <g id="line2d_3"/>
     <g id="text_3">
      <text style="font-size: 10px; font-family: 'DejaVu Sans'; text-anchor: middle; fill: #58655f" x="170.272952" y="210.997416" transform="rotate(-0 170.272952 210.997416)">150</text>
     </g>
    </g>
    <g id="xtick_4">
     <g id="line2d_4"/>
     <g id="text_4">
      <text style="font-size: 10px; font-family: 'DejaVu Sans'; text-anchor: middle; fill: #58655f" x="223.530478" y="210.997416" transform="rotate(-0 223.530478 210.997416)">200</text>
     </g>
    </g>
    <g id="xtick_5">
     <g id="line2d_5"/>
     <g id="text_5">
      <text style="font-size: 10px; font-family: 'DejaVu Sans'; text-anchor: middle; fill: #58655f" x="276.788003" y="210.997416" transform="rotate(-0 276.788003 210.997416)">250</text>
     </g>
    </g>
    <g id="text_6">
     <text style="font-size: 10px; font-family: 'DejaVu Sans'; text-anchor: middle; fill: #58655f" x="173.09375" y="224.997416" transform="rotate(-0 173.09375 224.997416)">m²</text>
    </g>
   </g>
   <g id="matplotlib.axis_2">
    <g id="ytick_1">
     <g id="line2d_6">
      <path d="M 39.58774 199.89976
L 306.59976 199.89976
" clip-path="url(#pc9dcb682c7)" style="fill: none; stroke: #b0b0b0; stroke-opacity: 0.16; stroke-width: 0.8; stroke-linecap: square"/>
     </g>
     <g id="line2d_7"/>
     <g id="text_7">
      <text style="font-size: 10px; font-family: 'DejaVu Sans'; text-anchor: end; fill: #58655f" x="36.08774" y="203.698588" transform="rotate(-0 36.08774 203.698588)">0</text>
     </g>
    </g>
    <g id="ytick_2">
     <g id="line2d_8">
      <path d="M 39.58774 171.961987
L 306.59976 171.961987
" clip-path="url(#pc9dcb682c7)" style="fill: none; stroke: #b0b0b0; stroke-opacity: 0.16; stroke-width: 0.8; stroke-linecap: square"/>
     </g>
     <g id="line2d_9"/>
     <g id="text_8">
      <text style="font-size: 10px; font-family: 'DejaVu Sans'; text-anchor: end; fill: #58655f" x="36.08774" y="175.760815" transform="rotate(-0 36.08774 175.760815)">20</text>
     </g>
    </g>
    <g id="ytick_3">
     <g id="line2d_10">
      <path d="M 39.58774 144.024213
L 306.59976 144.024213
" clip-path="url(#pc9dcb682c7)" style="fill: none; stroke: #b0b0b0; stroke-opacity: 0.16; stroke-width: 0.8; stroke-linecap: square"/>
     </g>
     <g id="line2d_11"/>
     <g id="text_9">
      <text style="font-size: 10px; font-family: 'DejaVu Sans'; text-anchor: end; fill: #58655f" x="36.08774" y="147.823042" transform="rotate(-0 36.08774 147.823042)">40</text>
     </g>
    </g>
    <g id="ytick_4">
     <g id="line2d_12">
      <path d="M 39.58774 116.08644
L 306.59976 116.08644
" clip-path="url(#pc9dcb682c7)" style="fill: none; stroke: #b0b0b0; stroke-opacity: 0.16; stroke-width: 0.8; stroke-linecap: square"/>
     </g>
     <g id="line2d_13"/>
     <g id="text_10">
      <text style="font-size: 10px; font-family: 'DejaVu Sans'; text-anchor: end; fill: #58655f" x="36.08774" y="119.885268" transform="rotate(-0 36.08774 119.885268)">60</text>
     </g>
    </g>
    <g id="ytick_5">
     <g id="line2d_14">
      <path d="M 39.58774 88.148667
L 306.59976 88.148667
" clip-path="url(#pc9dcb682c7)" style="fill: none; stroke: #b0b0b0; stroke-opacity: 0.16; stroke-width: 0.8; stroke-linecap: square"/>
     </g>
     <g id="line2d_15"/>
     <g id="text_11">
      <text style="font-size: 10px; font-family: 'DejaVu Sans'; text-anchor: end; fill: #58655f" x="36.08774" y="91.947495" transform="rotate(-0 36.08774 91.947495)">80</text>
     </g>
    </g>
    <g id="ytick_6">
     <g id="line2d_16">
      <path d="M 39.58774 60.210893
L 306.59976 60.210893
" clip-path="url(#pc9dcb682c7)" style="fill: none; stroke: #b0b0b0; stroke-opacity: 0.16; stroke-width: 0.8; stroke-linecap: square"/>
     </g>
     <g id="line2d_17"/>
     <g id="text_12">
      <text style="font-size: 10px; font-family: 'DejaVu Sans'; text-anchor: end; fill: #58655f" x="36.08774" y="64.009722" transform="rotate(-0 36.08774 64.009722)">100</text>
     </g>
    </g>
    <g id="ytick_7">
     <g id="line2d_18">
      <path d="M 39.58774 32.27312
L 306.59976 32.27312
" clip-path="url(#pc9dcb682c7)" style="fill: none; stroke: #b0b0b0; stroke-opacity: 0.16; stroke-width: 0.8; stroke-linecap: square"/>
     </g>
     <g id="line2d_19"/>
     <g id="text_13">
      <text style="font-size: 10px; font-family: 'DejaVu Sans'; text-anchor: end; fill: #58655f" x="36.08774" y="36.071948" transform="rotate(-0 36.08774 36.071948)">120</text>
     </g>
    </g>
    <g id="text_14">
     <text style="font-size: 10px; font-family: 'DejaVu Sans'; text-anchor: middle; fill: #58655f" x="10.597896" y="112.629141" transform="rotate(-90 10.597896 112.629141)">count</text>
    </g>
   </g>
   <g id="patch_3">
    <path d="M 51.72465 199.89976
L 62.469601 199.89976
L 62.469601 33.670009
L 51.72465 33.670009
z
" clip-path="url(#pc9dcb682c7)" style="fill: #247c68"/>
   </g>
   <g id="patch_4">
    <path d="M 63.934821 199.89976
L 74.679772 199.89976
L 74.679772 49.035784
L 63.934821 49.035784
z
" clip-path="url(#pc9dcb682c7)" style="fill: #247c68"/>
   </g>
   <g id="patch_5">
    <path d="M 76.144992 199.89976
L 86.889943 199.89976
L 86.889943 64.401559
L 76.144992 64.401559
z
" clip-path="url(#pc9dcb682c7)" style="fill: #247c68"/>
   </g>
   <g id="patch_6">
    <path d="M 88.355163 199.89976
L 99.100114 199.89976
L 99.100114 75.576669
L 88.355163 75.576669
z
" clip-path="url(#pc9dcb682c7)" style="fill: #247c68"/>
   </g>
   <g id="patch_7">
    <path d="M 100.565334 199.89976
L 111.310285 199.89976
L 111.310285 107.705108
L 100.565334 107.705108
z
" clip-path="url(#pc9dcb682c7)" style="fill: #247c68"/>
   </g>
   <g id="patch_8">
    <path d="M 112.775505 199.89976
L 123.520456 199.89976
L 123.520456 107.705108
L 112.775505 107.705108
z
" clip-path="url(#pc9dcb682c7)" style="fill: #247c68"/>
   </g>
   <g id="patch_9">
    <path d="M 124.985676 199.89976
L 135.730627 199.89976
L 135.730627 120.277106
L 124.985676 120.277106
z
" clip-path="url(#pc9dcb682c7)" style="fill: #247c68"/>
   </g>
   <g id="patch_10">
    <path d="M 137.195847 199.89976
L 147.940798 199.89976
L 147.940798 139.833547
L 137.195847 139.833547
z
" clip-path="url(#pc9dcb682c7)" style="fill: #247c68"/>
   </g>
   <g id="patch_11">
    <path d="M 149.406018 199.89976
L 160.150969 199.89976
L 160.150969 131.452215
L 149.406018 131.452215
z
" clip-path="url(#pc9dcb682c7)" style="fill: #247c68"/>
   </g>
   <g id="patch_12">
    <path d="M 161.616189 199.89976
L 172.36114 199.89976
L 172.36114 135.642881
L 161.616189 135.642881
z
" clip-path="url(#pc9dcb682c7)" style="fill: #247c68"/>
   </g>
   <g id="patch_13">
    <path d="M 173.82636 199.89976
L 184.571311 199.89976
L 184.571311 156.596211
L 173.82636 156.596211
z
" clip-path="url(#pc9dcb682c7)" style="fill: #247c68"/>
   </g>
   <g id="patch_14">
    <path d="M 186.036531 199.89976
L 196.781482 199.89976
L 196.781482 169.168209
L 186.036531 169.168209
z
" clip-path="url(#pc9dcb682c7)" style="fill: #247c68"/>
   </g>
   <g id="patch_15">
    <path d="M 198.246702 199.89976
L 208.991653 199.89976
L 208.991653 155.199323
L 198.246702 155.199323
z
" clip-path="url(#pc9dcb682c7)" style="fill: #247c68"/>
   </g>
   <g id="patch_16">
    <path d="M 210.456873 199.89976
L 221.201824 199.89976
L 221.201824 149.611768
L 210.456873 149.611768
z
" clip-path="url(#pc9dcb682c7)" style="fill: #247c68"/>
   </g>
   <g id="patch_17">
    <path d="M 222.667044 199.89976
L 233.411995 199.89976
L 233.411995 145.421102
L 222.667044 145.421102
z
" clip-path="url(#pc9dcb682c7)" style="fill: #247c68"/>
   </g>
   <g id="patch_18">
    <path d="M 234.877215 199.89976
L 245.622166 199.89976
L 245.622166 151.008657
L 234.877215 151.008657
z
" clip-path="url(#pc9dcb682c7)" style="fill: #247c68"/>
   </g>
   <g id="patch_19">
    <path d="M 247.087386 199.89976
L 257.832337 199.89976
L 257.832337 162.183766
L 247.087386 162.183766
z
" clip-path="url(#pc9dcb682c7)" style="fill: #247c68"/>
   </g>
   <g id="patch_20">
    <path d="M 259.297557 199.89976
L 270.042508 199.89976
L 270.042508 160.786877
L 259.297557 160.786877
z
" clip-path="url(#pc9dcb682c7)" style="fill: #247c68"/>
   </g>
   <g id="patch_21">
    <path d="M 271.507728 199.89976
L 282.252679 199.89976
L 282.252679 177.549541
L 271.507728 177.549541
z
" clip-path="url(#pc9dcb682c7)" style="fill: #247c68"/>
   </g>
   <g id="patch_22">
    <path d="M 283.717899 199.89976
L 294.46285 199.89976
L 294.46285 174.755764
L 283.717899 174.755764
z
" clip-path="url(#pc9dcb682c7)" style="fill: #247c68"/>
   </g>
   <g id="patch_23">
    <path d="M 39.58774 199.89976
L 39.58774 25.358521
" style="fill: none; stroke: #c4cbc6; stroke-width: 0.8; stroke-linejoin: miter; stroke-linecap: square"/>
   </g>
   <g id="patch_24">
    <path d="M 39.58774 199.89976
L 306.59976 199.89976
" style="fill: none; stroke: #c4cbc6; stroke-width: 0.8; stroke-linejoin: miter; stroke-linecap: square"/>
   </g>
   <g id="text_15">
    <text style="font-size: 11px; font-family: 'DejaVu Sans'; text-anchor: start; fill: #253b32" x="39.58774" y="11.358521" transform="rotate(-0 39.58774 11.358521)">Room footprint  ·  n=1,024</text>
   </g>
  </g>
 </g>
 <defs>
  <clipPath id="pc9dcb682c7">
   <rect x="39.58774" y="25.358521" width="267.01202" height="174.541239"/>
  </clipPath>
 </defs>
</svg>
