<?xml version="1.0" encoding="utf-8" standalone="no"?>
<!DOCTYPE svg PUBLIC "-//W3C//DTD SVG 1.1//EN"
  "http://www.w3.org/Graphics/SVG/1.1/DTD/svg11.dtd">
<svg xmlns:xlink="http://www.w3.org/1999/xlink" width="309.6pt" height="230.4pt" viewBox="0 0 309.6 230.4" xmlns="http://www.w3.org/2000/svg" version="1.1">
 <metadata>
  <rdf:RDF xmlns:dc="http://purl.org/dc/elements/1.1/" xmlns:cc="http://creativecommons.org/ns#" xmlns:rdf="http://www.w3.org/1999/02/22-rdf-syntax-ns#">
   <cc:Work>
    <dc:type rdf:resource="http://purl.org/dc/dcmitype/StillImage"/>
    <dc:date>2026-09-28T00:12:06.568884</dc:date>
    <dc:format>image/svg+xml</dc:format>
    <dc:creator>
     <cc:Agent>
      <dc:title>Matplotlib v3.11.2, https://matplotlib.org/</dc:title>
     </cc:Agent>
    </dc:creator>
   </cc:Work>
  </rdf:RDF>
 </metadata>
 <defs>
  <style type="text/css">*{stroke-linejoin: round; stroke-linecap: butt}</style>
 </defs>
 <g id="figure_1">
  <g id="patch_1">
   <path d="M 0 230.4
L 309.6 230.4
L 309.6 0
L 0 0
z
" style="fill: #ffffff"/>
  </g>
  <g id="axes_1">
   <g id="patch_2">
    <path d="M 39.58774 199.898979
L 306.59976 199.898979
L 306.59976 25.358521
L 39.58774 25.358521
z
" style="fill: #ffffff"/>
   </g>
   <g id="matplotlib.axis_1">
    <g id="xtick_1">
     <g id="line2d_1"/>
     <g id="text_1">
      <text style="font-size: 10px; font-family: 'DejaVu Sans'; text-anchor: middle; fill: #58655f" x="87.909628" y="210.996635" transform="rotate(-0 87.909628 210.996635)">40</text>
     </g>
    </g>
    <g id="xtick_2">
     <g id="line2d_2"/>
     <g id="text_2">
      <text style="font-size: 10px; font-family: 'DejaVu Sans'; text-anchor: middle; fill: #58655f" x="149.818248" y="210.996635" transform="rotate(-0 149.818248 210.996635)">60</text>
     </g>
    </g>
    <g id="xtick_3">
     <g id="line2d_3"/>
     <g id="text_3">
      <text style="font-size: 10px; font-family: 'DejaVu Sans'; text-anchor: middle; fill: #58655f" x="211.726868" y="210.996635" transform="rotate(-0 211.726868 210.996635)">80</text>
     </g>
    </g>
    <g id="xtick_4">
     <g id="line2d_4"/>
     <g id="text_4">
      <text style="font-size: 10px; font-family: 'DejaVu Sans'; text-anchor: middle; fill: #58655f" x="273.635488" y="210.996635" transform="rotate(-0 273.635488 210.996635)">100</text>
     </g>
    </g>
    <g id="text_5">
     <text style="font-size: 10px; font-family: 'DejaVu Sans'; text-anchor: middle; fill: #58655f" x="173.09375" y="224.997416" transform="rotate(-0 173.09375 224.997416)">degrees</text>
    </g>
   </g>
   <g id="matplotlib.axis_2">
    <g id="ytick_1">
     <g id="line2d_5">
      <path d="M 39.58774 199.898979
L 306.59976 199.898979
" clip-path="url(#p5e9134e091)" style="fill: none; stroke: #b0b0b0; stroke-opacity: 0.16; stroke-width: 0.8; stroke-linecap: square"/>
     </g>
     <g id="line2d_6"/>
     <g id="text_6">
      <text style="font-size: 10px; font-family: 'DejaVu Sans'; text-anchor: end; fill: #58655f" x="36.08774" y="203.697807" transform="rotate(-0 36.08774 203.697807)">0</text>
     </g>
    </g>
    <g id="ytick_2">
     <g id="line2d_7">
      <path d="M 39.58774 167.176733
L 306.59976 167.176733
" clip-path="url(#p5e9134e091)" style="fill: none; stroke: #b0b0b0; stroke-opacity: 0.16; stroke-width: 0.8; stroke-linecap: square"/>
     </g>
     <g id="line2d_8"/>
     <g id="text_7">
      <text style="font-size: 10px; font-family: 'DejaVu Sans'; text-anchor: end; fill: #58655f" x="36.08774" y="170.975561" transform="rotate(-0 36.08774 170.975561)">50</text>
     </g>
    </g>
    <g id="ytick_3">
     <g id="line2d_9">
      <path d="M 39.58774 134.454488
L 306.59976 134.454488
" clip-path="url(#p5e9134e091)" style="fill: none; stroke: #b0b0b0; stroke-opacity: 0.16; stroke-width: 0.8; stroke-linecap: square"/>
     </g>
     <g id="line2d_10"/>
     <g id="text_8">
      <text style="font-size: 10px; font-family: 'DejaVu Sans'; text-anchor: end; fill: #58655f" x="36.08774" y="138.253316" transform="rotate(-0 36.08774 138.253316)">100</text>
     </g>
    </g>
    <g id="ytick_4">
     <g id="line2d_11">
      <path d="M 39.58774 101.732242
L 306.59976 101.732242
" clip-path="url(#p5e9134e091)" style="fill: none; stroke: #b0b0b0; stroke-opacity: 0.16; stroke-width: 0.8; stroke-linecap: square"/>
     </g>
     <g id="line2d_12"/>
     <g id="text_9">
      <text style="font-size: 10px; font-family: 'DejaVu Sans'; text-anchor: end; fill: #58655f" x="36.08774" y="105.53107" transform="rotate(-0 36.08774 105.53107)">150</text>
     </g>
    </g>
    <g id="ytick_5">
     <g id="line2d_13">
      <path d="M 39.58774 69.009997
L 306.59976 69.009997
" clip-path="url(#p5e9134e091)" style="fill: none; stroke: #b0b0b0; stroke-opacity: 0.16; stroke-width: 0.8; stroke-linecap: square"/>
     </g>
     <g id="line2d_14"/>
     <g id="text_10">
      <text style="font-size: 10px; font-family: 'DejaVu Sans'; text-anchor: end; fill: #58655f" x="36.08774" y="72.808825" transform="rotate(-0 36.08774 72.808825)">200</text>
     </g>
    </g>
    <g id="ytick_6">
     <g id="line2d_15">
      <path d="M 39.58774 36.287751
L 306.59976 36.287751
" clip-path="url(#p5e9134e091)" style="fill: none; stroke: #b0b0b0; stroke-opacity: 0.16; stroke-width: 0.8; stroke-linecap: square"/>
     </g>
     <g id="line2d_16"/>
     <g id="text_11">
      <text style="font-size: 10px; font-family: 'DejaVu Sans'; text-anchor: end; fill: #58655f" x="36.08774" y="40.086579" transform="rotate(-0 36.08774 40.086579)">250</text>
     </g>
    </g>
    <g id="text_12">
     <text style="font-size: 10px; font-family: 'DejaVu Sans'; text-anchor: middle; fill: #58655f" x="10.597896" y="112.62875" transform="rotate(-90 10.597896 112.62875)">count</text>
    </g>
   </g>
   <g id="patch_3">
    <path d="M 51.72465 199.898979
L 62.469601 199.898979
L 62.469601 96.496683
L 51.72465 96.496683
z
" clip-path="url(#p5e9134e091)" style="fill: #247c68"/>
   </g>
   <g id="patch_4">
    <path d="M 63.934821 199.898979
L 74.679772 199.898979
L 74.679772 69.009997
L 63.934821 69.009997
z
" clip-path="url(#p5e9134e091)" style="fill: #247c68"/>
   </g>
   <g id="patch_5">
    <path d="M 76.144992 199.898979
L 86.889943 199.898979
L 86.889943 46.104425
L 76.144992 46.104425
z
" clip-path="url(#p5e9134e091)" style="fill: #247c68"/>
   </g>
   <g id="patch_6">
    <path d="M 88.355163 199.898979
L 99.100114 199.898979
L 99.100114 51.339984
L 88.355163 51.339984
z
" clip-path="url(#p5e9134e091)" style="fill: #247c68"/>
   </g>
   <g id="patch_7">
    <path d="M 100.565334 199.898979
L 111.310285 199.898979
L 111.310285 39.559976
L 100.565334 39.559976
z
" clip-path="url(#p5e9134e091)" style="fill: #247c68"/>
   </g>
   <g id="patch_8">
    <path d="M 112.775505 199.898979
L 123.520456 199.898979
L 123.520456 40.214421
L 112.775505 40.214421
z
" clip-path="url(#p5e9134e091)" style="fill: #247c68"/>
   </g>
   <g id="patch_9">
    <path d="M 124.985676 199.898979
L 135.730627 199.898979
L 135.730627 38.905531
L 124.985676 38.905531
z
" clip-path="url(#p5e9134e091)" style="fill: #247c68"/>
   </g>
   <g id="patch_10">
    <path d="M 137.195847 199.898979
L 147.940798 199.898979
L 147.940798 33.669972
L 137.195847 33.669972
z
" clip-path="url(#p5e9134e091)" style="fill: #247c68"/>
   </g>
   <g id="patch_11">
    <path d="M 149.406018 199.898979
L 160.150969 199.898979
L 160.150969 42.8322
L 149.406018 42.8322
z
" clip-path="url(#p5e9134e091)" style="fill: #247c68"/>
   </g>
   <g id="patch_12">
    <path d="M 161.616189 199.898979
L 172.36114 199.898979
L 172.36114 56.575543
L 161.616189 56.575543
z
" clip-path="url(#p5e9134e091)" style="fill: #247c68"/>
   </g>
   <g id="patch_13">
    <path d="M 173.82636 199.898979
L 184.571311 199.898979
L 184.571311 53.303319
L 173.82636 53.303319
z
" clip-path="url(#p5e9134e091)" style="fill: #247c68"/>
   </g>
   <g id="patch_14">
    <path d="M 186.036531 199.898979
L 196.781482 199.898979
L 196.781482 58.538878
L 186.036531 58.538878
z
" clip-path="url(#p5e9134e091)" style="fill: #247c68"/>
   </g>
   <g id="patch_15">
    <path d="M 198.246702 199.898979
L 208.991653 199.898979
L 208.991653 62.465548
L 198.246702 62.465548
z
" clip-path="url(#p5e9134e091)" style="fill: #247c68"/>
   </g>
   <g id="patch_16">
    <path d="M 210.456873 199.898979
L 221.201824 199.898979
L 221.201824 65.737772
L 210.456873 65.737772
z
" clip-path="url(#p5e9134e091)" style="fill: #247c68"/>
   </g>
   <g id="patch_17">
    <path d="M 222.667044 199.898979
L 233.411995 199.898979
L 233.411995 84.06223
L 222.667044 84.06223
z
" clip-path="url(#p5e9134e091)" style="fill: #247c68"/>
   </g>
   <g id="patch_18">
    <path d="M 234.877215 199.898979
L 245.622166 199.898979
L 245.622166 76.863336
L 234.877215 76.863336
z
" clip-path="url(#p5e9134e091)" style="fill: #247c68"/>
   </g>
   <g id="patch_19">
    <path d="M 247.087386 199.898979
L 257.832337 199.898979
L 257.832337 82.75334
L 247.087386 82.75334
z
" clip-path="url(#p5e9134e091)" style="fill: #247c68"/>
   </g>
   <g id="patch_20">
    <path d="M 259.297557 199.898979
L 270.042508 199.898979
L 270.042508 100.423352
L 259.297557 100.423352
z
" clip-path="url(#p5e9134e091)" style="fill: #247c68"/>
   </g>
   <g id="patch_21">
    <path d="M 271.507728 199.898979
L 282.252679 199.898979
L 282.252679 96.496683
L 271.507728 96.496683
z
" clip-path="url(#p5e9134e091)" style="fill: #247c68"/>
   </g>
   <g id="patch_22">
    <path d="M 283.717899 199.898979
L 294.46285 199.898979
L 294.46285 122.020034
L 283.717899 122.020034
z
" clip-path="url(#p5e9134e091)" style="fill: #247c68"/>
   </g>
   <g id="patch_23">
    <path d="M 39.58774 199.898979
L 39.58774 25.358521
" style="fill: none; stroke: #c4cbc6; stroke-width: 0.8; stroke-linejoin: miter; stroke-linecap: square"/>
   </g>
   <g id="patch_24">
    <path d="M 39.58774 199.898979
L 306.59976 199.898979
" style="fill: none; stroke: #c4cbc6; stroke-width: 0.8; stroke-linejoin: miter; stroke-linecap: square"/>
   </g>
   <g id="text_13">
    <text style="font-size: 11px; font-family: 'DejaVu Sans'; text-anchor: start; fill: #253b32" x="39.58774" y="11.358521" transform="rotate(-0 39.58774 11.358521)">Vertical field of view  ·  n=4,096</text>
   </g>
  </g>
 </g>
 <defs>
  <clipPath id="p5e9134e091">
   <rect x="39.58774" y="25.358521" width="267.01202" height="174.540457"/>
  </clipPath>
 </defs>
</svg>
